<svg width="33" height="32" viewBox="0 0 33 32" fill="none" xmlns="http://www.w3.org/2000/svg">
<path d="M16.5586 0C7.73593 0 0.558594 7.17733 0.558594 16C0.558594 24.8227 7.73593 32 16.5586 32H32.5586V16C32.5586 7.17733 25.3813 0 16.5586 0ZM31.2253 30.6667H16.5586C8.47193 30.6667 1.89193 24.0867 1.89193 16C1.89193 7.91333 8.47193 1.33333 16.5586 1.33333C24.6453 1.33333 31.2253 7.91333 31.2253 16V30.6667ZM21.8919 12.6667V13.3333H20.5586V12.6667C20.5586 11.564 19.6613 10.6667 18.5586 10.6667H14.5586C13.4559 10.6667 12.5586 11.564 12.5586 12.6667C12.5586 13.8347 13.3959 14.816 14.5479 15.0013L18.7799 15.6813C20.5839 15.9707 21.8919 17.5067 21.8919 19.3333C21.8919 21.1707 20.3973 22.6667 18.5586 22.6667H17.2253V25.3333H15.8919V22.6667H14.5586C12.7199 22.6667 11.2253 21.1707 11.2253 19.3333V18.6667H12.5586V19.3333C12.5586 20.436 13.4559 21.3333 14.5586 21.3333H18.5586C19.6613 21.3333 20.5586 20.436 20.5586 19.3333C20.5586 18.1653 19.7213 17.184 18.5693 16.9987L14.3373 16.3187C12.5333 16.0293 11.2253 14.4933 11.2253 12.6667C11.2253 10.8293 12.7199 9.33333 14.5586 9.33333H15.8919V6.66667H17.2253V9.33333H18.5586C20.3973 9.33333 21.8919 10.8293 21.8919 12.6667Z" fill="#009379"/>
</svg>
