<svg width="41" height="41" viewBox="0 0 41 41" fill="none" xmlns="http://www.w3.org/2000/svg">
<g clip-path="url(#clip0_64_1920)">
<mask id="mask0_64_1920" style="mask-type:luminance" maskUnits="userSpaceOnUse" x="0" y="0" width="41" height="41">
<path d="M0.5 0.487305H40.5V40.4873H0.5V0.487305Z" fill="white"/>
</mask>
<g mask="url(#mask0_64_1920)">
<path fill-rule="evenodd" clip-rule="evenodd" d="M14.2873 9.23732H15.8398L16.9398 8.13732L19.6148 5.46232C19.7309 5.34591 19.8689 5.25355 20.0207 5.19054C20.1726 5.12752 20.3354 5.09508 20.4998 5.09508C20.6642 5.09508 20.8271 5.12752 20.9789 5.19054C21.1308 5.25355 21.2687 5.34591 21.3848 5.46232L24.0598 8.13732L25.1598 9.23732H30.4998C30.8314 9.23732 31.1493 9.36901 31.3837 9.60343C31.6181 9.83785 31.7498 10.1558 31.7498 10.4873V15.8273L32.8498 16.9273L35.5248 19.6023C35.6412 19.7184 35.7336 19.8564 35.7966 20.0082C35.8596 20.1601 35.8921 20.3229 35.8921 20.4873C35.8921 20.6517 35.8596 20.8145 35.7966 20.9664C35.7336 21.1183 35.6412 21.2562 35.5248 21.3723L32.8498 24.0473L31.7498 25.1473V30.4873C31.7498 30.8188 31.6181 31.1368 31.3837 31.3712C31.1493 31.6056 30.8314 31.7373 30.4998 31.7373H25.1623L24.0623 32.8373L21.3848 35.5123C21.1504 35.7467 20.8325 35.8783 20.5011 35.8783C20.1696 35.8783 19.8517 35.7467 19.6173 35.5123L16.9373 32.8373L15.8398 31.7373H10.4998C10.1683 31.7373 9.85037 31.6056 9.61595 31.3712C9.38153 31.1368 9.24983 30.8188 9.24983 30.4873V25.1473L8.14983 24.0473L5.47483 21.3723C5.35842 21.2562 5.26607 21.1183 5.20305 20.9664C5.14003 20.8145 5.1076 20.6517 5.1076 20.4873C5.1076 20.3229 5.14003 20.1601 5.20305 20.0082C5.26607 19.8564 5.35842 19.7184 5.47483 19.6023L8.14983 16.9273L9.24983 15.8273V10.4873C9.24983 10.1558 9.38153 9.83785 9.61595 9.60343C9.85037 9.36901 10.1683 9.23732 10.4998 9.23732H14.2873ZM24.0373 2.80982C23.573 2.34493 23.0215 1.97614 22.4145 1.72452C21.8075 1.4729 21.1569 1.34338 20.4998 1.34338C19.8428 1.34338 19.1921 1.4729 18.5851 1.72452C17.9781 1.97614 17.4267 2.34493 16.9623 2.80982L14.2898 5.48732H10.4998C9.17375 5.48732 7.90198 6.0141 6.9643 6.95178C6.02662 7.88946 5.49983 9.16123 5.49983 10.4873V14.2748L2.82483 16.9498C2.35995 17.4142 1.99115 17.9656 1.73953 18.5726C1.48791 19.1796 1.3584 19.8302 1.3584 20.4873C1.3584 21.1444 1.48791 21.795 1.73953 22.402C1.99115 23.009 2.35995 23.5605 2.82483 24.0248L5.49983 26.6973V30.4873C5.49983 31.8134 6.02662 33.0852 6.9643 34.0229C7.90198 34.9605 9.17375 35.4873 10.4998 35.4873H14.2873L16.9623 38.1648C17.4267 38.6297 17.9781 38.9985 18.5851 39.2501C19.1921 39.5017 19.8428 39.6313 20.4998 39.6313C21.1569 39.6313 21.8075 39.5017 22.4145 39.2501C23.0215 38.9985 23.573 38.6297 24.0373 38.1648L26.7098 35.4873H30.4998C31.8259 35.4873 33.0977 34.9605 34.0354 34.0229C34.973 33.0852 35.4998 31.8134 35.4998 30.4873V26.6998L38.1773 24.0248C38.6422 23.5605 39.011 23.009 39.2626 22.402C39.5143 21.795 39.6438 21.1444 39.6438 20.4873C39.6438 19.8302 39.5143 19.1796 39.2626 18.5726C39.011 17.9656 38.6422 17.4142 38.1773 16.9498L35.5023 14.2748V10.4873C35.5023 9.16123 34.9755 7.88946 34.0379 6.95178C33.1002 6.0141 31.8284 5.48732 30.5023 5.48732H26.7123L24.0373 2.80982ZM28.2498 16.6123C28.5482 16.2145 28.6763 15.7144 28.606 15.2222C28.5357 14.7299 28.2727 14.2857 27.8748 13.9873C27.477 13.6889 26.9769 13.5608 26.4847 13.6312C25.9924 13.7015 25.5482 13.9645 25.2498 14.3623L19.0498 22.6323L15.5748 19.1623C15.2194 18.8311 14.7493 18.6508 14.2635 18.6594C13.7778 18.6679 13.3143 18.8647 12.9708 19.2083C12.6272 19.5518 12.4305 20.0153 12.4219 20.501C12.4133 20.9868 12.5936 21.4569 12.9248 21.8123L17.9248 26.8123C18.1147 27.0022 18.3432 27.149 18.5947 27.2429C18.8463 27.3369 19.1151 27.3757 19.383 27.3567C19.6508 27.3377 19.9115 27.2615 20.1473 27.133C20.3831 27.0046 20.5886 26.827 20.7498 26.6123L28.2498 16.6123Z" fill="#009379"/>
</g>
</g>
<defs>
<clipPath id="clip0_64_1920">
<rect width="40" height="40" fill="white" transform="translate(0.5 0.487305)"/>
</clipPath>
</defs>
</svg>
