<svg width="27" height="26" viewBox="0 0 27 26" fill="none" xmlns="http://www.w3.org/2000/svg">
<path d="M1.55859 6C1.55859 3.64267 1.55859 2.464 2.29193 1.73333C3.02126 1 4.19993 1 6.55859 1C8.91593 1 10.0946 1 10.8253 1.73333C11.5586 2.464 11.5586 3.64267 11.5586 6C11.5586 8.35733 11.5586 9.536 10.8253 10.2667C10.0946 11 8.91593 11 6.55859 11C4.20126 11 3.02259 11 2.29193 10.2667C1.55859 9.53733 1.55859 8.35867 1.55859 6ZM1.55859 20.0093C1.55859 17.652 1.55859 16.4733 2.29193 15.7427C3.02259 15.0093 4.20126 15.0093 6.55859 15.0093C8.91593 15.0093 10.0946 15.0093 10.8253 15.7427C11.5586 16.4733 11.5586 17.652 11.5586 20.0093C11.5586 22.3667 11.5586 23.5453 10.8253 24.276C10.0946 25.0093 8.91593 25.0093 6.55859 25.0093C4.20126 25.0093 3.02259 25.0093 2.29193 24.276C1.55859 23.5467 1.55859 22.3667 1.55859 20.0093ZM15.5586 6C15.5586 3.64267 15.5586 2.464 16.2919 1.73333C17.0226 1 18.2013 1 20.5586 1C22.9159 1 24.0946 1 24.8253 1.73333C25.5586 2.464 25.5586 3.64267 25.5586 6C25.5586 8.35733 25.5586 9.536 24.8253 10.2667C24.0946 11 22.9159 11 20.5586 11C18.2013 11 17.0226 11 16.2919 10.2667C15.5586 9.536 15.5586 8.35733 15.5586 6ZM15.5586 20.0093C15.5586 17.652 15.5586 16.4733 16.2919 15.7427C17.0226 15.0093 18.2013 15.0093 20.5586 15.0093C22.9159 15.0093 24.0946 15.0093 24.8253 15.7427C25.5586 16.4733 25.5586 17.652 25.5586 20.0093C25.5586 22.3667 25.5586 23.5453 24.8253 24.276C24.0946 25.0093 22.9159 25.0093 20.5586 25.0093C18.2013 25.0093 17.0226 25.0093 16.2919 24.276C15.5586 23.5453 15.5586 22.3667 15.5586 20.0093Z" stroke="#009379" stroke-width="1.5" stroke-linecap="round" stroke-linejoin="round"/>
</svg>
