<svg width="29" height="30" viewBox="0 0 29 30" fill="none" xmlns="http://www.w3.org/2000/svg">
<path fill-rule="evenodd" clip-rule="evenodd" d="M14.4829 0.666748H16.5589C16.8241 0.666748 17.0785 0.772105 17.266 0.959641C17.4536 1.14718 17.5589 1.40153 17.5589 1.66675C17.5589 1.93196 17.4536 2.18632 17.266 2.37385C17.0785 2.56139 16.8241 2.66675 16.5589 2.66675H14.5589C11.3883 2.66675 9.11092 2.66941 7.37759 2.90141C5.67225 3.13075 4.64425 3.56808 3.88425 4.32675C3.12559 5.08675 2.68959 6.11341 2.46025 7.81875C2.22825 9.55208 2.22559 11.8294 2.22559 15.0001C2.22559 18.1707 2.22825 20.4481 2.46025 22.1814C2.68959 23.8867 3.12692 24.9147 3.88559 25.6747C4.64559 26.4334 5.67225 26.8694 7.37759 27.0987C9.11092 27.3307 11.3883 27.3334 14.5589 27.3334C17.7296 27.3334 20.0069 27.3307 21.7403 27.0987C23.4456 26.8694 24.4736 26.4321 25.2336 25.6734C25.9923 24.9134 26.4282 23.8867 26.6576 22.1814C26.8896 20.4481 26.8923 18.1707 26.8923 15.0001V13.0001C26.8923 12.7349 26.9976 12.4805 27.1851 12.293C27.3727 12.1054 27.627 12.0001 27.8923 12.0001C28.1575 12.0001 28.4118 12.1054 28.5994 12.293C28.7869 12.4805 28.8923 12.7349 28.8923 13.0001V15.0761C28.8923 18.1547 28.8923 20.5667 28.6389 22.4494C28.3803 24.3747 27.8389 25.8947 26.6469 27.0881C25.4536 28.2814 23.9336 28.8214 22.0069 29.0801C20.1256 29.3334 17.7136 29.3334 14.6349 29.3334H14.4829C11.4043 29.3334 8.99225 29.3334 7.10959 29.0801C5.18425 28.8214 3.66425 28.2801 2.47092 27.0881C1.27759 25.8947 0.737586 24.3747 0.478919 22.4481C0.225586 20.5667 0.225586 18.1547 0.225586 15.0761V14.9241C0.225586 11.8454 0.225586 9.43341 0.478919 7.55075C0.737586 5.62541 1.27892 4.10541 2.47092 2.91208C3.66425 1.71875 5.18425 1.17875 7.11092 0.920081C8.99225 0.666748 11.4043 0.666748 14.4829 0.666748ZM20.9189 2.03475C21.7988 1.17908 22.9802 0.704144 24.2075 0.712653C25.4348 0.721161 26.6095 1.21243 27.4775 2.08021C28.3454 2.948 28.8369 4.12256 28.8457 5.34989C28.8544 6.57721 28.3797 7.75867 27.5243 8.63875L18.6603 17.5041C18.1656 17.9974 17.8549 18.3094 17.5096 18.5787C17.1018 18.8969 16.6605 19.1696 16.1936 19.3921C15.7976 19.5801 15.3803 19.7187 14.7176 19.9401L10.8443 21.2307C10.4938 21.3475 10.1178 21.3643 9.75836 21.2794C9.39889 21.1945 9.07017 21.0112 8.80899 20.75C8.54782 20.4888 8.36451 20.1601 8.27961 19.8006C8.1947 19.4412 8.21154 19.0652 8.32825 18.7147L9.61892 14.8414C9.84025 14.1774 9.97892 13.7614 10.1669 13.3654C10.3896 12.8987 10.6629 12.4587 10.9803 12.0494C11.2496 11.7027 11.5603 11.3934 12.0549 10.8987L20.9189 2.03475ZM26.1096 3.44808C25.6088 2.94751 24.9297 2.66631 24.2216 2.66631C23.5135 2.66631 22.8344 2.94751 22.3336 3.44808L21.8323 3.95075C21.8616 4.07875 21.9043 4.23075 21.9629 4.40141C22.1536 4.95208 22.5163 5.67741 23.1989 6.36008C23.8627 7.02644 24.6957 7.49898 25.6083 7.72675L26.1096 7.22541C26.6102 6.7246 26.8914 6.0455 26.8914 5.33741C26.8914 4.62933 26.6102 3.94889 26.1096 3.44808ZM24.0323 9.30408C23.1927 8.94218 22.4297 8.4236 21.7843 7.77608C21.1367 7.13066 20.6181 6.36771 20.2563 5.52808L13.5163 12.2667C12.9603 12.8227 12.7429 13.0427 12.5563 13.2801C12.3282 13.5736 12.1329 13.891 11.9736 14.2267C11.8429 14.4974 11.7443 14.7907 11.4949 15.5361L10.9203 17.2627L12.2963 18.6401L14.0229 18.0641C14.7696 17.8147 15.0616 17.7161 15.3336 17.5867C15.6683 17.4267 15.9869 17.2307 16.2803 17.0014C16.5163 16.8161 16.7363 16.5987 17.2923 16.0441L24.0323 9.30408Z" fill="#009379"/>
</svg>
