<svg width="29" height="26" viewBox="0 0 29 26" fill="none" xmlns="http://www.w3.org/2000/svg">
<path fill-rule="evenodd" clip-rule="evenodd" d="M5.16292 0H23.9549C24.8443 0 25.6042 -1.04308e-07 26.2123 0.0759999C26.8563 0.157333 27.4789 0.34 27.9909 0.82C28.5109 1.30933 28.7176 1.91867 28.8083 2.552C28.8923 3.13467 28.8923 3.85867 28.8923 4.68533V5.72C28.8923 6.372 28.8923 6.93333 28.8443 7.404C28.7909 7.91067 28.6776 8.384 28.4029 8.83867C28.1296 9.29067 27.7629 9.61867 27.3389 9.912C26.9403 10.1893 26.4323 10.476 25.8323 10.8133L21.9096 13.0213C21.0163 13.524 20.7056 13.7053 20.4976 13.8853C20.0216 14.2987 19.7483 14.7587 19.6203 15.3333C19.5656 15.58 19.5589 15.8893 19.5589 16.8307V20.4733C19.5589 21.6747 19.5589 22.6947 19.4349 23.48C19.3043 24.3133 18.9989 25.1133 18.1989 25.6133C17.4163 26.1027 16.5563 26.0573 15.7189 25.8587C14.9123 25.668 13.9189 25.2787 12.7269 24.8133L12.6123 24.768C12.0523 24.5493 11.5643 24.3587 11.1776 24.1587C10.7616 23.944 10.3749 23.6773 10.0803 23.2613C9.78025 22.84 9.66159 22.3893 9.60692 21.928C9.55892 21.508 9.55892 21.004 9.55892 20.4413V16.8307C9.55892 15.8893 9.55359 15.58 9.49759 15.3333C9.37654 14.7656 9.06741 14.2554 8.62025 13.8853C8.41225 13.7053 8.10025 13.524 7.20825 13.0213L3.28559 10.8133C2.68559 10.476 2.17759 10.1893 1.77892 9.912C1.35492 9.61867 0.988253 9.29067 0.714919 8.83867C0.440253 8.384 0.326919 7.90933 0.274919 7.404C0.225586 6.93467 0.225586 6.372 0.225586 5.72V4.68533C0.225586 3.85867 0.225586 3.13467 0.309586 2.552C0.400253 1.91867 0.606919 1.30933 1.12692 0.82C1.63892 0.34 2.26025 0.157333 2.90559 0.0759999C3.51359 -1.04308e-07 4.27359 0 5.16292 0ZM3.15625 2.06133C2.71092 2.11733 2.56959 2.208 2.49625 2.27867C2.42959 2.34 2.34425 2.448 2.28825 2.836C2.22825 3.26 2.22559 3.83867 2.22559 4.75333V5.67333C2.22559 6.38533 2.22559 6.844 2.26292 7.19867C2.29759 7.528 2.35625 7.68667 2.42825 7.80533C2.50159 7.92667 2.62425 8.064 2.91892 8.26933C3.23092 8.48533 3.65625 8.72667 4.30559 9.092L8.18959 11.2787L8.29625 11.3387C9.04292 11.7587 9.54959 12.044 9.93092 12.3747C10.7021 13.0253 11.2366 13.9127 11.4509 14.8987C11.5589 15.388 11.5589 15.9387 11.5589 16.712V20.3907C11.5589 21.02 11.5603 21.4067 11.5949 21.6973C11.6243 21.9613 11.6736 22.0507 11.7096 22.1027C11.7496 22.1587 11.8296 22.2453 12.0949 22.3827C12.3776 22.528 12.7683 22.6813 13.3843 22.9227C14.6656 23.424 15.5283 23.7587 16.1803 23.9133C16.8189 24.0653 17.0296 23.9867 17.1376 23.9187C17.2283 23.8613 17.3683 23.7453 17.4603 23.168C17.5563 22.5587 17.5589 21.6973 17.5589 20.3893V16.712C17.5589 15.9387 17.5589 15.388 17.6683 14.8987C17.8823 13.9129 18.4162 13.0255 19.1869 12.3747C19.5683 12.044 20.0763 11.7573 20.8202 11.3387L20.9283 11.2787L24.8123 9.092C25.4616 8.72667 25.8869 8.48533 26.1989 8.26933C26.4936 8.064 26.6163 7.92667 26.6896 7.80533C26.7616 7.68667 26.8203 7.528 26.8536 7.19867C26.8909 6.844 26.8923 6.38533 26.8923 5.672V4.752C26.8923 3.83867 26.8896 3.25867 26.8296 2.836C26.7736 2.448 26.6869 2.34 26.6229 2.27867C26.5483 2.20933 26.4069 2.11733 25.9616 2.06133C25.4949 2.00133 24.8616 2 23.8923 2H5.22559C4.25625 2 3.62425 2.00133 3.15625 2.06133Z" fill="#009379"/>
</svg>
