<svg width="83" height="84" viewBox="0 0 83 84" fill="none" xmlns="http://www.w3.org/2000/svg">
<rect y="0.987305" width="83" height="83" rx="12" fill="#FF6250" fill-opacity="0.09"/>
<g clip-path="url(#clip0_64_4239)">
<path d="M58 46.8125C58 47.192 57.692 47.5 57.3125 47.5H55.7079C54.6739 47.5 53.6481 47.841 52.8204 48.4625L44.4439 54.7435C43.5804 55.4145 42.5422 55.7514 41.5014 55.7514C40.4605 55.7514 39.4141 55.4131 38.5451 54.7352L30.1782 48.4625C29.3505 47.841 28.3247 47.5 27.2908 47.5H25.6875C25.308 47.5 25 47.192 25 46.8125C25 46.433 25.308 46.125 25.6875 46.125H27.2921C28.6231 46.125 29.9404 46.5636 31.0033 47.3611L39.3798 53.6421C40.631 54.6184 42.3676 54.6143 43.6106 53.6504L51.9968 47.3611C52.2924 47.1397 52.6073 46.9473 52.9373 46.7822L42.9286 39.2775L41.126 41.0031C40.488 41.6411 39.6163 42 38.7074 42C37.5345 42 36.5019 41.3854 35.9037 40.5549C34.9371 39.2129 35.1406 37.2659 36.3809 36.027L40.5457 32.1055L39.19 30.8707C37.7242 29.537 35.4349 29.2991 33.778 30.1296L30.5949 31.7219C29.7396 32.1495 28.7826 32.375 27.827 32.375H25.6875C25.308 32.375 25 32.067 25 31.6875C25 31.308 25.308 31 25.6875 31H27.827C28.5695 31 29.3148 30.824 29.9789 30.4926L33.162 28.9004C34.0104 28.4741 34.9633 28.25 35.9161 28.25C37.5043 28.25 38.9782 28.8206 40.1154 29.8546L41.5481 31.1609L42.8612 29.9247C44.7024 28.1922 47.5871 27.7729 49.8366 28.9004L53.0198 30.4926C53.6839 30.824 54.4291 31 55.1716 31H57.3111C57.6906 31 57.9986 31.308 57.9986 31.6875C57.9986 32.067 57.6906 32.375 57.3111 32.375H55.1716C54.2174 32.375 53.259 32.1495 52.4038 31.7219L49.2206 30.1296C47.4716 29.2524 45.2318 29.5796 43.8031 30.9258L37.3365 37.0142C36.583 37.7677 36.4414 38.9502 37.0189 39.7519C37.386 40.2606 37.925 40.5686 38.5382 40.6181C39.1377 40.6621 39.7345 40.4504 40.1635 40.02L45.8904 34.5379C46.164 34.2752 46.5999 34.2849 46.8625 34.5599C47.1237 34.8335 47.1155 35.2694 46.8405 35.532L43.9351 38.3136L54.5103 46.2446C54.9035 46.1663 55.305 46.125 55.7079 46.125H57.3125C57.692 46.125 58 46.433 58 46.8125Z" fill="#FF6250"/>
</g>
<defs>
<clipPath id="clip0_64_4239">
<rect width="33" height="33" fill="white" transform="translate(25 25.5)"/>
</clipPath>
</defs>
</svg>
