<svg width="41" height="41" viewBox="0 0 41 41" fill="none" xmlns="http://www.w3.org/2000/svg">
<g clip-path="url(#clip0_64_3053)">
<path d="M1.85742 9.30164L8.12599 12.6731L13.726 11.7074C14.6583 11.546 15.6149 11.5944 16.5262 11.8489C17.4375 12.1034 18.2807 12.5577 18.9946 13.1788M32.526 27.0073L23.6631 33.3045C22.7116 33.9805 21.5759 34.3489 20.4087 34.3601C19.2416 34.3714 18.0989 34.0249 17.1346 33.3674L1.85742 22.9531" stroke="#009379" stroke-width="3" stroke-linecap="round" stroke-linejoin="round"/>
<path d="M38.5832 22.8873L32.3118 27.173L22.5803 19.3159L19.0003 21.9188C18.2996 22.4275 17.4289 22.6445 16.5714 22.524C15.7139 22.4036 14.9366 21.9551 14.4032 21.273C13.8719 20.5916 13.6254 19.7308 13.7155 18.8714C13.8055 18.012 14.2251 17.221 14.8861 16.6645L18.6146 13.5302C19.4984 12.7862 20.5234 12.2286 21.6282 11.8908C22.7329 11.553 23.8945 11.442 25.0432 11.5645L30.8518 12.1873L38.5832 8.00732" stroke="#009379" stroke-width="3" stroke-linecap="round" stroke-linejoin="round"/>
<path d="M22.5801 19.3359C24.9229 21.4216 28.2429 20.3559 29.4772 18.653" stroke="#009379" stroke-width="3" stroke-linecap="round" stroke-linejoin="round"/>
</g>
<defs>
<clipPath id="clip0_64_3053">
<rect width="40" height="40" fill="white" transform="translate(0.291992 0.487305)"/>
</clipPath>
</defs>
</svg>
