<svg width="69" height="24" viewBox="0 0 69 24" fill="none" xmlns="http://www.w3.org/2000/svg">
<path d="M44.0079 23.3052C42.5178 23.3052 41.3057 22.0741 41.3057 20.5607V2.85401C41.3057 1.34056 42.5178 0.109375 44.0079 0.109375C45.4979 0.109375 46.71 1.34056 46.71 2.85401V20.5607C46.71 22.0741 45.4979 23.3052 44.0079 23.3052Z" fill="#333333"/>
<path d="M68.3269 8.89899V20.5247C68.3269 21.3332 67.9915 22.0769 67.4507 22.6105C66.9104 23.1441 66.1654 23.4756 65.3381 23.4756C64.2492 23.4756 63.2992 22.9016 62.7753 22.0446C62.6768 21.8829 62.5952 21.705 62.5293 21.5272C61.9565 22.2548 61.2356 22.8046 60.36 23.1926C59.418 23.6049 58.2962 23.8151 57.0024 23.8151C55.7087 23.8151 54.5459 23.5241 53.5387 22.942C52.5233 22.3599 51.7373 21.4949 51.1641 20.363C50.5909 19.2312 50.3125 17.8406 50.3125 16.2075V8.91514C50.3125 8.09858 50.6482 7.36285 51.1887 6.83735C51.7291 6.30376 52.4742 5.97231 53.3012 5.97231C54.9471 5.97231 56.29 7.29009 56.29 8.91514V16.0054C56.29 18.2044 57.289 19.3039 59.2952 19.3039C60.2287 19.3039 60.9739 19.0209 61.5305 18.4469C62.0876 17.8729 62.3656 17.0644 62.3656 16.0054V8.91514C62.3656 7.29009 63.7005 5.97231 65.3544 5.97231C66.992 5.95616 68.3269 7.27393 68.3269 8.89899Z" fill="#333333"/>
<path d="M29.2013 23.8151C27.3037 23.8151 25.6994 23.5138 24.3963 22.9269C23.0933 22.3322 22.0997 21.4757 21.4075 20.3655C20.7152 19.2552 20.3243 17.923 20.2348 16.3845C20.2103 15.9405 20.2021 15.4408 20.2021 14.8777C20.2021 14.3148 20.2103 13.823 20.2348 13.4107C20.3243 11.8485 20.7315 10.5161 21.4563 9.41388C22.1812 8.31155 23.191 7.463 24.4941 6.86828C25.7971 6.2735 27.3607 5.97217 29.1932 5.97217C31.05 5.97217 32.6218 6.2735 33.9248 6.86828C35.2279 7.463 36.2377 8.31155 36.9625 9.41388C37.6873 10.5161 38.0945 11.8485 38.1841 13.4107C38.2086 13.831 38.2167 14.3226 38.2167 14.8777C38.2167 15.4408 38.2086 15.9405 38.1841 16.3845C38.0945 17.923 37.7037 19.2552 37.0114 20.3655C36.3192 21.4757 35.3256 22.3322 34.0225 22.9269C32.7358 23.5138 31.1233 23.8151 29.2013 23.8151ZM29.2013 19.7786C30.2193 19.7786 30.9604 19.4852 31.4246 18.8825C31.8888 18.2878 32.1576 17.3996 32.2227 16.2101C32.2471 15.877 32.2553 15.4408 32.2553 14.8857C32.2553 14.3385 32.2471 13.8945 32.2227 13.5614C32.1576 12.3956 31.8888 11.5074 31.4246 10.9047C30.9604 10.302 30.2193 9.99276 29.2013 9.99276C28.2077 9.99276 27.4748 10.2941 26.9943 10.9047C26.5219 11.5074 26.2613 12.3956 26.2124 13.5614C26.188 13.8945 26.1799 14.3306 26.1799 14.8857C26.1799 15.4329 26.188 15.877 26.2124 16.2101C26.2613 17.3996 26.5137 18.2878 26.9943 18.8825C27.4748 19.4852 28.2077 19.7786 29.2013 19.7786Z" fill="#333333"/>
<path d="M18.2533 10.6604C19.1138 8.93767 18.4014 6.85018 16.6621 5.99788C14.9228 5.14558 12.8153 5.85119 11.9548 7.57395L6.13017 19.2351C5.3815 20.734 6.00132 22.5502 7.51464 23.2917C9.47991 24.2548 11.8614 23.4574 12.8336 21.5109L18.2533 10.6604Z" fill="#38DF9F"/>
<path d="M0.315361 10.4808C-0.48716 8.73057 0.29479 6.66732 2.06189 5.8724C3.82901 5.07755 5.9121 5.85205 6.7146 7.60234L11.9266 18.9696C12.7292 20.7199 11.9473 22.7832 10.1801 23.578C8.41302 24.3729 6.32992 23.5984 5.52743 21.8482L0.315361 10.4808Z" fill="#333333"/>
<path d="M10.1946 11.1015C10.549 10.4244 11.3904 10.1602 12.074 10.5112C12.7575 10.8623 13.0244 11.6957 12.67 12.3727L10.3294 16.8439C9.97495 17.521 9.13351 17.7852 8.44995 17.4342C7.76646 17.0832 7.49961 16.2497 7.85402 15.5727L10.1946 11.1015Z" fill="#38DF9F"/>
</svg>
