<svg width="79" height="24" viewBox="0 0 79 24" fill="none" xmlns="http://www.w3.org/2000/svg">
<path d="M29.8888 23.992C28.0254 23.992 26.45 23.6881 25.1704 23.0963C23.8908 22.4965 22.9151 21.6328 22.2354 20.5131C21.5556 19.3935 21.1717 18.05 21.0837 16.4985C21.0598 16.0506 21.0518 15.5468 21.0518 14.979C21.0518 14.4112 21.0598 13.9153 21.0837 13.4995C21.1717 11.924 21.5716 10.5805 22.2833 9.46883C22.9951 8.3572 23.9868 7.50148 25.2663 6.90168C26.5459 6.30188 28.0814 5.99799 29.8808 5.99799C31.7042 5.99799 33.2477 6.30188 34.5273 6.90168C35.8068 7.50148 36.7985 8.3572 37.5103 9.46883C38.222 10.5805 38.6219 11.924 38.7099 13.4995C38.7339 13.9233 38.7418 14.4192 38.7418 14.979C38.7418 15.5468 38.7339 16.0506 38.7099 16.4985C38.6219 18.05 38.238 19.3935 37.5582 20.5131C36.8785 21.6328 35.9028 22.4965 34.6232 23.0963C33.3596 23.6881 31.7762 23.992 29.8888 23.992ZM29.8888 19.9213C30.8885 19.9213 31.6162 19.6254 32.0721 19.0176C32.5279 18.4178 32.7918 17.5221 32.8558 16.3225C32.8798 15.9866 32.8878 15.5468 32.8878 14.987C32.8878 14.4352 32.8798 13.9873 32.8558 13.6514C32.7918 12.4758 32.5279 11.5801 32.0721 10.9723C31.6162 10.3645 30.8885 10.0526 29.8888 10.0526C28.9131 10.0526 28.1934 10.3565 27.7215 10.9723C27.2577 11.5801 27.0018 12.4758 26.9538 13.6514C26.9298 13.9873 26.9218 14.4272 26.9218 14.987C26.9218 15.5388 26.9298 15.9866 26.9538 16.3225C27.0018 17.5221 27.2497 18.4178 27.7215 19.0176C28.1934 19.6254 28.9131 19.9213 29.8888 19.9213Z" fill="#333333"/>
<path d="M68.9716 9.24491V20.7451C68.9716 21.5448 68.6437 22.2806 68.1159 22.8084C67.588 23.3362 66.8603 23.6641 66.0525 23.6641C64.9889 23.6641 64.0612 23.0963 63.5494 22.2486C63.4534 22.0886 63.3734 21.9127 63.3095 21.7367C62.7496 22.4565 62.0459 23.0003 61.1902 23.3842C60.2705 23.792 59.1748 24 57.9113 24C56.6477 24 55.5121 23.7121 54.5284 23.1363C53.5367 22.5605 52.769 21.7047 52.2092 20.5851C51.6494 19.4655 51.3774 18.09 51.3774 16.4745V9.2609C51.3774 8.45317 51.7053 7.72542 52.2332 7.20559C52.761 6.67777 53.4887 6.34988 54.2965 6.34988C55.9039 6.34988 57.2155 7.65344 57.2155 9.2609V16.2746C57.2155 18.4498 58.1912 19.5375 60.1505 19.5375C61.0622 19.5375 61.79 19.2576 62.3338 18.6898C62.8776 18.1219 63.1495 17.3222 63.1495 16.2746V9.2609C63.1495 7.65344 64.4531 6.34988 66.0685 6.34988C67.668 6.33388 68.9716 7.63745 68.9716 9.24491Z" fill="#333333"/>
<path d="M75.6893 23.6561C74.0578 23.6561 72.7383 22.3366 72.7383 20.7051C72.7383 19.0737 74.0578 17.7541 75.6893 17.7541C77.3207 17.7541 78.6403 19.0737 78.6403 20.7051C78.6323 22.3366 77.3128 23.6561 75.6893 23.6561Z" fill="#38DF9F"/>
<path d="M0.138707 4.06263L5.29698 20.2332C5.94477 22.2725 7.84013 23.6561 9.98342 23.6561C12.1267 23.6561 14.0221 22.2645 14.6699 20.2252L19.8041 4.06263C20.3879 2.21525 19.0124 0.335876 17.077 0.335876C15.8215 0.335876 14.7098 1.1516 14.342 2.3592L9.96742 16.5944L5.62487 2.3592C5.257 1.1596 4.14537 0.335876 2.88979 0.335876H2.8658C0.922445 0.335876 -0.453095 2.21525 0.138707 4.06263Z" fill="#333333"/>
<path d="M44.8196 23.6561C43.2761 23.6561 42.0205 22.4005 42.0205 20.857V2.79906C42.0205 1.25558 43.2761 0 44.8196 0C46.3631 0 47.6186 1.25558 47.6186 2.79906V20.857C47.6186 22.4005 46.3631 23.6561 44.8196 23.6561Z" fill="#333333"/>
</svg>
