<svg width="80" height="79" viewBox="0 0 80 79" fill="none" xmlns="http://www.w3.org/2000/svg">
<rect opacity="0.1" x="0.5" width="79" height="79" rx="15" fill="#22C55E"/>
<path opacity="0.5" d="M56.6643 39C55.1615 45.7571 47.8982 50.8988 39.1846 50.8988C37.9492 50.8988 36.7161 50.7875 35.5 50.5762C38.4877 53.1631 43.1134 54.468 47.8935 53.761L54.2916 56.9199C54.4005 56.9733 54.5187 57 54.6369 57C54.7783 57 54.9189 56.9619 55.0433 56.8864C55.2705 56.7476 55.4095 56.502 55.4095 56.2374V50.4191C57.4052 48.6315 58.5 46.3771 58.5 44.035C58.5 42.2443 57.8533 40.5146 56.6643 39Z" fill="#22C55E"/>
<path d="M39 23C29.9014 23 22.5 28.8198 22.5 35.9737C22.5 38.7233 23.5851 41.3448 25.6429 43.5747V51.2368C25.6429 51.5017 25.7843 51.7466 26.0153 51.8863C26.1418 51.9618 26.2848 52 26.4286 52C26.5488 52 26.669 51.9733 26.7798 51.9199L34.1105 48.3597C35.7094 48.7497 37.3524 48.9474 39 48.9474C48.0986 48.9474 55.5 43.1275 55.5 35.9737C55.5 28.8198 48.0986 23 39 23Z" fill="#22C55E"/>
</svg>
