<svg width="72" height="72" viewBox="0 0 72 72" fill="none" xmlns="http://www.w3.org/2000/svg">
<g filter="url(#filter0_d_92_2354)">
<rect x="4" width="64" height="64" rx="11" fill="#FF6250" fill-opacity="0.09" shape-rendering="crispEdges"/>
<path fill-rule="evenodd" clip-rule="evenodd" d="M27.499 21.8987C25.287 22.9093 23.667 25.3147 23.667 28.1827C23.667 31.112 24.867 33.3707 26.5843 35.3067C28.0017 36.9013 29.7163 38.224 31.3883 39.512C31.7857 39.8187 32.1803 40.124 32.5683 40.4293C33.2697 40.9827 33.895 41.4667 34.499 41.82C35.1017 42.172 35.587 42.3333 36.0003 42.3333C36.4137 42.3333 36.899 42.1733 37.5017 41.82C38.1057 41.4667 38.731 40.9827 39.4323 40.4293C39.819 40.1227 40.215 39.8187 40.6123 39.5133C42.2843 38.2227 43.999 36.9013 45.4163 35.3067C47.135 33.3707 48.3337 31.112 48.3337 28.1827C48.3337 25.316 46.7137 22.9093 44.5017 21.8987C42.3523 20.916 39.4643 21.176 36.7203 24.028C36.627 24.1248 36.5152 24.2018 36.3915 24.2544C36.2678 24.3069 36.1347 24.334 36.0003 24.334C35.8659 24.334 35.7329 24.3069 35.6092 24.2544C35.4854 24.2018 35.3736 24.1248 35.2803 24.028C32.5363 21.176 29.6483 20.916 27.499 21.8987ZM36.0003 21.9467C32.9177 19.1867 29.4657 18.8 26.667 20.0787C23.715 21.432 21.667 24.568 21.667 28.184C21.667 31.7373 23.147 34.4493 25.0897 36.636C26.6443 38.3867 28.547 39.852 30.2283 41.1453C30.6097 41.4387 30.979 41.724 31.3297 42.0013C32.0137 42.54 32.747 43.1133 33.4897 43.548C34.2323 43.9813 35.0803 44.3347 36.0003 44.3347C36.9203 44.3347 37.7683 43.9813 38.511 43.548C39.255 43.1133 39.987 42.54 40.671 42.0013C41.0362 41.7136 41.4033 41.4282 41.7723 41.1453C43.4523 39.852 45.3563 38.3853 46.911 36.636C48.8537 34.4493 50.3337 31.7373 50.3337 28.184C50.3337 24.568 48.287 21.432 45.3337 20.0813C42.535 18.8013 39.083 19.188 36.0003 21.9467Z" fill="#FF6250"/>
</g>
<defs>
<filter id="filter0_d_92_2354" x="0" y="0" width="72" height="72" filterUnits="userSpaceOnUse" color-interpolation-filters="sRGB">
<feFlood flood-opacity="0" result="BackgroundImageFix"/>
<feColorMatrix in="SourceAlpha" type="matrix" values="0 0 0 0 0 0 0 0 0 0 0 0 0 0 0 0 0 0 127 0" result="hardAlpha"/>
<feOffset dy="4"/>
<feGaussianBlur stdDeviation="2"/>
<feComposite in2="hardAlpha" operator="out"/>
<feColorMatrix type="matrix" values="0 0 0 0 1 0 0 0 0 0.384314 0 0 0 0 0.313726 0 0 0 0.3 0"/>
<feBlend mode="normal" in2="BackgroundImageFix" result="effect1_dropShadow_92_2354"/>
<feBlend mode="normal" in="SourceGraphic" in2="effect1_dropShadow_92_2354" result="shape"/>
</filter>
</defs>
</svg>
