<svg width="20" height="20" viewBox="0 0 20 20" fill="none" xmlns="http://www.w3.org/2000/svg">
<path d="M7.35156 14.4219C6.46094 17.0703 2.92969 17.0703 2.92969 17.0703C2.92969 17.0703 2.92969 13.5391 5.57812 12.6484" stroke="#F8F9FF" stroke-width="1.66667" stroke-linecap="round" stroke-linejoin="round"/>
<path d="M15.3047 8.23447L10 13.5392L6.46094 10.0001L11.7656 4.6954C13.7734 2.68759 15.7813 2.71103 16.6406 2.83603C16.7732 2.85372 16.8963 2.91456 16.9909 3.00916C17.0855 3.10376 17.1464 3.22686 17.1641 3.35947C17.2891 4.21884 17.3125 6.22665 15.3047 8.23447Z" stroke="#F8F9FF" stroke-width="1.66667" stroke-linecap="round" stroke-linejoin="round"/>
<path d="M14.4219 9.11719V14.1641C14.4195 14.3289 14.3521 14.4862 14.2344 14.6016L11.7109 17.1328C11.6309 17.2128 11.5306 17.2695 11.4208 17.297C11.3111 17.3244 11.1959 17.3215 11.0876 17.2886C10.9794 17.2558 10.882 17.1941 10.8061 17.1102C10.7301 17.0264 10.6783 16.9235 10.6562 16.8125L10 13.5391" stroke="#F8F9FF" stroke-width="1.66667" stroke-linecap="round" stroke-linejoin="round"/>
<path d="M10.883 5.57812H5.83612C5.67127 5.58047 5.51402 5.64787 5.39862 5.76563L2.86737 8.28906C2.78741 8.36912 2.73068 8.46939 2.70323 8.57916C2.67579 8.68894 2.67866 8.8041 2.71154 8.91237C2.74442 9.02064 2.80608 9.11796 2.88994 9.19393C2.9738 9.2699 3.07671 9.32168 3.18769 9.34375L6.46112 10" stroke="#F8F9FF" stroke-width="1.66667" stroke-linecap="round" stroke-linejoin="round"/>
</svg>
