<svg width="83" height="84" viewBox="0 0 83 84" fill="none" xmlns="http://www.w3.org/2000/svg">
<rect y="0.987305" width="83" height="83" rx="12" fill="#F7FAFE"/>
<path d="M58.6663 37.5V34.1667C58.6663 33.2826 58.3152 32.4348 57.69 31.8097C57.0649 31.1845 56.2171 30.8333 55.333 30.8333H28.6663C27.7823 30.8333 26.9344 31.1845 26.3093 31.8097C25.6842 32.4348 25.333 33.2826 25.333 34.1667V50.8333C25.333 51.7174 25.6842 52.5652 26.3093 53.1904C26.9344 53.8155 27.7823 54.1667 28.6663 54.1667H41.9997M58.6663 37.5H31.9997M58.6663 37.5V40.8333" stroke="#4285F4" stroke-width="2" stroke-linecap="round" stroke-linejoin="round"/>
<path d="M53.6526 46.0417L57.9126 47.1233C58.3559 47.2367 58.6676 47.64 58.6543 48.0967C58.3676 57.6933 52.8326 59.1667 52.8326 59.1667C52.8326 59.1667 47.2976 57.6933 47.0109 48.0967C47.0064 47.8745 47.0772 47.6573 47.2119 47.4806C47.3466 47.3038 47.5372 47.1779 47.7526 47.1233L52.0126 46.0417C52.5509 45.905 53.1143 45.905 53.6526 46.0417Z" stroke="#4285F4" stroke-width="2" stroke-linecap="round" stroke-linejoin="round"/>
</svg>
