<svg width="16" height="16" viewBox="0 0 16 16" fill="none" xmlns="http://www.w3.org/2000/svg">
<path d="M6.73118 1.42894C7.16703 0.25108 8.83297 0.251079 9.26882 1.42894L10.485 4.71566C10.622 5.08598 10.914 5.37795 11.2843 5.51498L14.5711 6.73118C15.7489 7.16703 15.7489 8.83297 14.5711 9.26882L11.2843 10.485C10.914 10.622 10.622 10.914 10.485 11.2843L9.26882 14.5711C8.83297 15.7489 7.16703 15.7489 6.73118 14.5711L5.51498 11.2843C5.37795 10.914 5.08598 10.622 4.71566 10.485L1.42894 9.26882C0.25108 8.83297 0.251079 7.16703 1.42894 6.73118L4.71566 5.51498C5.08598 5.37795 5.37795 5.08598 5.51498 4.71566L6.73118 1.42894Z" fill="#1FBE81" fill-opacity="0.69"/>
</svg>
