<svg width="41" height="41" viewBox="0 0 41 41" fill="none" xmlns="http://www.w3.org/2000/svg">
<path fill-rule="evenodd" clip-rule="evenodd" d="M17.9766 7.34398C19.1016 5.40731 21.8982 5.40731 23.0232 7.34398L26.4649 13.2773C26.7816 13.824 27.3316 14.1956 27.9566 14.2906L33.6732 15.154C36.1632 15.5306 37.0366 18.6773 35.0966 20.284L30.9316 23.734C30.6445 23.972 30.4266 24.2826 30.3005 24.6335C30.1745 24.9844 30.1449 25.3627 30.2149 25.729L31.3816 31.8556C31.8382 34.2556 29.3182 36.119 27.1566 34.9823L21.4699 31.9873C21.1708 31.8299 20.8379 31.7477 20.4999 31.7477C20.1619 31.7477 19.829 31.8299 19.5299 31.9873L13.8432 34.9823C11.6816 36.1206 9.16157 34.2556 9.61824 31.8556L10.7849 25.729C10.8549 25.3627 10.8253 24.9844 10.6993 24.6335C10.5732 24.2826 10.3553 23.972 10.0682 23.734L5.90157 20.284C3.96324 18.6773 4.83491 15.5306 7.32824 15.154L13.0449 14.2906C13.3534 14.2439 13.6475 14.1283 13.9054 13.9527C14.1633 13.777 14.3784 13.5456 14.5349 13.2756L17.9766 7.34398ZM20.8599 8.59898C20.8232 8.53603 20.7707 8.4838 20.7075 8.4475C20.6443 8.4112 20.5728 8.3921 20.4999 8.3921C20.4271 8.3921 20.3555 8.4112 20.2923 8.4475C20.2291 8.4838 20.1766 8.53603 20.1399 8.59898L16.6966 14.5323C16.3519 15.1257 15.8784 15.6342 15.311 16.0202C14.7436 16.4061 14.0968 16.6597 13.4182 16.7623L7.70157 17.6256C7.62198 17.6376 7.54755 17.6724 7.48729 17.7257C7.42703 17.7791 7.38352 17.8488 7.36201 17.9264C7.34051 18.0039 7.34193 18.0861 7.3661 18.1628C7.39028 18.2396 7.43617 18.3077 7.49824 18.359L11.6632 21.809C12.2947 22.3321 12.7742 23.0151 13.0518 23.7866C13.3294 24.5582 13.3949 25.3901 13.2416 26.1956L12.0749 32.3223C12.0602 32.3993 12.0676 32.4789 12.0962 32.552C12.1247 32.625 12.1733 32.6885 12.2363 32.7351C12.2993 32.7818 12.3742 32.8097 12.4524 32.8157C12.5306 32.8217 12.6089 32.8055 12.6782 32.769L18.3649 29.7756C19.0232 29.4291 19.756 29.248 20.4999 29.248C21.2438 29.248 21.9766 29.4291 22.6349 29.7756L28.3216 32.769C28.391 32.8055 28.4692 32.8217 28.5474 32.8157C28.6256 32.8097 28.7005 32.7818 28.7635 32.7351C28.8265 32.6885 28.8751 32.625 28.9037 32.552C28.9322 32.4789 28.9396 32.3993 28.9249 32.3223L27.7582 26.1956C27.6049 25.3901 27.6704 24.5582 27.948 23.7866C28.2256 23.0151 28.7051 22.3321 29.3366 21.809L33.5032 18.359C33.5653 18.3076 33.6112 18.2394 33.6353 18.1625C33.6594 18.0856 33.6607 18.0033 33.639 17.9257C33.6173 17.8481 33.5735 17.7785 33.5131 17.7252C33.4526 17.6719 33.378 17.6374 33.2982 17.6256L27.5816 16.7623C26.9029 16.6596 26.256 16.4057 25.6885 16.0194C25.1211 15.6332 24.6477 15.1244 24.3032 14.5306L20.8599 8.59898Z" fill="#009379"/>
</svg>
