<svg width="80" height="79" viewBox="0 0 80 79" fill="none" xmlns="http://www.w3.org/2000/svg">
<rect opacity="0.1" x="0.5" width="79" height="79" rx="15" fill="#4285F4"/>
<path d="M48.1414 32.359C46.0264 30.253 43.2634 29.2 40.5004 29.2V40L32.8594 47.641C37.0804 51.862 43.9114 51.862 48.1324 47.641C52.3534 43.42 52.3534 36.58 48.1414 32.359Z" fill="#4285F4"/>
<path opacity="0.5" fill-rule="evenodd" clip-rule="evenodd" d="M22.5 40C22.5 30.055 30.555 22 40.5 22C50.445 22 58.5 30.055 58.5 40C58.5 49.936 50.445 58 40.5 58C30.555 58 22.5 49.945 22.5 40ZM26.1 40C26.1 47.956 32.544 54.4 40.5 54.4C48.456 54.4 54.9 47.956 54.9 40C54.9 32.044 48.456 25.6 40.5 25.6C32.544 25.6 26.1 32.044 26.1 40Z" fill="#4285F4"/>
</svg>
