<svg width="72" height="72" viewBox="0 0 72 72" fill="none" xmlns="http://www.w3.org/2000/svg">
<g filter="url(#filter0_d_92_2319)">
<rect x="4" width="64" height="64" rx="11" fill="#F8D57E" fill-opacity="0.13" shape-rendering="crispEdges"/>
<path opacity="0.2" d="M28.7124 43.2875C28.6193 43.382 28.5084 43.457 28.3861 43.5082C28.2638 43.5595 28.1325 43.5858 27.9999 43.5858C27.8673 43.5858 27.736 43.5595 27.6137 43.5082C27.4914 43.457 27.3804 43.382 27.2874 43.2875L24.7124 40.7125C24.6179 40.6195 24.5429 40.5085 24.4917 40.3862C24.4404 40.2639 24.4141 40.1326 24.4141 40C24.4141 39.8674 24.4404 39.7361 24.4917 39.6138C24.5429 39.4915 24.6179 39.3805 24.7124 39.2875L37.9999 26L41.9999 30L28.7124 43.2875Z" fill="#FBBC05"/>
<path d="M47 32V38" stroke="#FBBC05" stroke-width="2.375" stroke-linecap="round" stroke-linejoin="round"/>
<path d="M44 35H50" stroke="#FBBC05" stroke-width="2.375" stroke-linecap="round" stroke-linejoin="round"/>
<path d="M30.5 21V26" stroke="#FBBC05" stroke-width="2.375" stroke-linecap="round" stroke-linejoin="round"/>
<path d="M28 23.5H33" stroke="#FBBC05" stroke-width="2.375" stroke-linecap="round" stroke-linejoin="round"/>
<path d="M41 39V43" stroke="#FBBC05" stroke-width="2.375" stroke-linecap="round" stroke-linejoin="round"/>
<path d="M39 41H43" stroke="#FBBC05" stroke-width="2.375" stroke-linecap="round" stroke-linejoin="round"/>
<path d="M43.304 20.7038L24.7159 39.2919C24.3254 39.6824 24.3254 40.3156 24.7159 40.7061L27.3013 43.2915C27.6918 43.682 28.3249 43.682 28.7155 43.2915L47.3035 24.7034C47.6941 24.3129 47.6941 23.6797 47.3035 23.2892L44.7182 20.7038C44.3277 20.3133 43.6945 20.3133 43.304 20.7038Z" stroke="#FBBC05" stroke-width="2.375" stroke-linecap="round" stroke-linejoin="round"/>
<path d="M38 26L42 30" stroke="#FBBC05" stroke-width="2.375" stroke-linecap="round" stroke-linejoin="round"/>
</g>
<defs>
<filter id="filter0_d_92_2319" x="0" y="0" width="72" height="72" filterUnits="userSpaceOnUse" color-interpolation-filters="sRGB">
<feFlood flood-opacity="0" result="BackgroundImageFix"/>
<feColorMatrix in="SourceAlpha" type="matrix" values="0 0 0 0 0 0 0 0 0 0 0 0 0 0 0 0 0 0 127 0" result="hardAlpha"/>
<feOffset dy="4"/>
<feGaussianBlur stdDeviation="2"/>
<feComposite in2="hardAlpha" operator="out"/>
<feColorMatrix type="matrix" values="0 0 0 0 0.972549 0 0 0 0 0.835294 0 0 0 0 0.494118 0 0 0 0.3 0"/>
<feBlend mode="normal" in2="BackgroundImageFix" result="effect1_dropShadow_92_2319"/>
<feBlend mode="normal" in="SourceGraphic" in2="effect1_dropShadow_92_2319" result="shape"/>
</filter>
</defs>
</svg>
