<svg width="79" height="25" viewBox="0 0 79 25" fill="none" xmlns="http://www.w3.org/2000/svg">
<path d="M29.8888 24.4793C28.0254 24.4793 26.45 24.1754 25.1704 23.5836C23.8908 22.9838 22.9151 22.1201 22.2354 21.0004C21.5556 19.8808 21.1717 18.5373 21.0837 16.9858C21.0598 16.5379 21.0518 16.0341 21.0518 15.4663C21.0518 14.8985 21.0598 14.4026 21.0837 13.9868C21.1717 12.4113 21.5716 11.0678 22.2833 9.95613C22.9951 8.8445 23.9868 7.98879 25.2663 7.38899C26.5459 6.78919 28.0814 6.48529 29.8808 6.48529C31.7042 6.48529 33.2477 6.78919 34.5273 7.38899C35.8068 7.98879 36.7985 8.8445 37.5103 9.95613C38.222 11.0678 38.6219 12.4113 38.7099 13.9868C38.7339 14.4106 38.7418 14.9065 38.7418 15.4663C38.7418 16.0341 38.7339 16.5379 38.7099 16.9858C38.6219 18.5373 38.238 19.8808 37.5582 21.0004C36.8785 22.1201 35.9028 22.9838 34.6232 23.5836C33.3596 24.1754 31.7762 24.4793 29.8888 24.4793ZM29.8888 20.4086C30.8885 20.4086 31.6162 20.1127 32.0721 19.5049C32.5279 18.9051 32.7918 18.0094 32.8558 16.8098C32.8798 16.474 32.8878 16.0341 32.8878 15.4743C32.8878 14.9225 32.8798 14.4746 32.8558 14.1387C32.7918 12.9631 32.5279 12.0674 32.0721 11.4596C31.6162 10.8518 30.8885 10.5399 29.8888 10.5399C28.9131 10.5399 28.1934 10.8438 27.7215 11.4596C27.2577 12.0674 27.0018 12.9631 26.9538 14.1387C26.9298 14.4746 26.9218 14.9145 26.9218 15.4743C26.9218 16.0261 26.9298 16.474 26.9538 16.8098C27.0018 18.0094 27.2497 18.9051 27.7215 19.5049C28.1934 20.1127 28.9131 20.4086 29.8888 20.4086Z" fill="white"/>
<path d="M68.9721 9.73225V21.2324C68.9721 22.0321 68.6442 22.7679 68.1163 23.2957C67.5885 23.8235 66.8608 24.1514 66.053 24.1514C64.9894 24.1514 64.0617 23.5836 63.5499 22.7359C63.4539 22.576 63.3739 22.4 63.3099 22.2241C62.7501 22.9438 62.0464 23.4876 61.1907 23.8715C60.271 24.2794 59.1753 24.4873 57.9117 24.4873C56.6482 24.4873 55.5126 24.1994 54.5289 23.6236C53.5372 23.0478 52.7695 22.1921 52.2097 21.0725C51.6498 19.9528 51.3779 18.5773 51.3779 16.9618V9.74824C51.3779 8.94051 51.7058 8.21275 52.2336 7.69293C52.7615 7.1651 53.4892 6.83721 54.297 6.83721C55.9044 6.83721 57.216 8.14078 57.216 9.74824V16.7619C57.216 18.9372 58.1917 20.0248 60.151 20.0248C61.0627 20.0248 61.7905 19.7449 62.3343 19.1771C62.8781 18.6093 63.15 17.8095 63.15 16.7619V9.74824C63.15 8.14078 64.4536 6.83721 66.069 6.83721C67.6685 6.82122 68.9721 8.12478 68.9721 9.73225Z" fill="white"/>
<path d="M75.6893 24.1434C74.0578 24.1434 72.7383 22.8239 72.7383 21.1924C72.7383 19.561 74.0578 18.2414 75.6893 18.2414C77.3207 18.2414 78.6403 19.561 78.6403 21.1924C78.6323 22.8239 77.3128 24.1434 75.6893 24.1434Z" fill="#38DF9F"/>
<path d="M0.138707 4.54996L5.29698 20.7206C5.94477 22.7599 7.84013 24.1434 9.98342 24.1434C12.1267 24.1434 14.0221 22.7519 14.6699 20.7126L19.8041 4.54996C20.3879 2.70258 19.0124 0.823212 17.077 0.823212C15.8215 0.823212 14.7098 1.63894 14.342 2.84653L9.96742 17.0818L5.62487 2.84653C5.257 1.64694 4.14537 0.823212 2.88979 0.823212H2.8658C0.922445 0.823212 -0.453095 2.70258 0.138707 4.54996Z" fill="white"/>
<path d="M44.8196 24.1434C43.2761 24.1434 42.0205 22.8878 42.0205 21.3443V3.28637C42.0205 1.74289 43.2761 0.487305 44.8196 0.487305C46.3631 0.487305 47.6186 1.74289 47.6186 3.28637V21.3443C47.6186 22.8878 46.3631 24.1434 44.8196 24.1434Z" fill="white"/>
</svg>
