<svg width="83" height="84" viewBox="0 0 83 84" fill="none" xmlns="http://www.w3.org/2000/svg">
<rect y="0.987305" width="83" height="83" rx="12" fill="#CCE9E4" fill-opacity="0.2"/>
<path d="M35.3333 38.6667C35.1123 38.6667 34.9004 38.7545 34.7441 38.9107C34.5878 39.067 34.5 39.279 34.5 39.5C34.5 39.721 34.5878 39.933 34.7441 40.0893C34.9004 40.2455 35.1123 40.3333 35.3333 40.3333H41.1667C41.3877 40.3333 41.5996 40.2455 41.7559 40.0893C41.9122 39.933 42 39.721 42 39.5C42 39.279 41.9122 39.067 41.7559 38.9107C41.5996 38.7545 41.3877 38.6667 41.1667 38.6667H35.3333ZM34.5 35.3333C34.5 35.1123 34.5878 34.9004 34.7441 34.7441C34.9004 34.5878 35.1123 34.5 35.3333 34.5H48.25C48.471 34.5 48.683 34.5878 48.8393 34.7441C48.9955 34.9004 49.0833 35.1123 49.0833 35.3333C49.0833 35.5543 48.9955 35.7663 48.8393 35.9226C48.683 36.0789 48.471 36.1667 48.25 36.1667H35.3333C35.1123 36.1667 34.9004 36.0789 34.7441 35.9226C34.5878 35.7663 34.5 35.5543 34.5 35.3333Z" fill="#009379"/>
<path fill-rule="evenodd" clip-rule="evenodd" d="M34.5 45.3333C34.5 45.1123 34.5878 44.9004 34.7441 44.7441C34.9004 44.5878 35.1123 44.5 35.3333 44.5H38.6667C38.8877 44.5 39.0996 44.5878 39.2559 44.7441C39.4122 44.9004 39.5 45.1123 39.5 45.3333V48.6667C39.5 48.8877 39.4122 49.0997 39.2559 49.2559C39.0996 49.4122 38.8877 49.5 38.6667 49.5H35.3333C35.1123 49.5 34.9004 49.4122 34.7441 49.2559C34.5878 49.0997 34.5 48.8877 34.5 48.6667V45.3333ZM36.1667 47.8333V46.1667H37.8333V47.8333H36.1667ZM45.3333 47.8333C45.9964 47.8333 46.6323 47.57 47.1011 47.1011C47.5699 46.6323 47.8333 45.9964 47.8333 45.3333C47.8333 44.6703 47.5699 44.0344 47.1011 43.5656C46.6323 43.0967 45.9964 42.8333 45.3333 42.8333C44.6703 42.8333 44.0344 43.0967 43.5656 43.5656C43.0967 44.0344 42.8333 44.6703 42.8333 45.3333C42.8333 45.9964 43.0967 46.6323 43.5656 47.1011C44.0344 47.57 44.6703 47.8333 45.3333 47.8333ZM45.3333 46.1667C45.4458 46.1718 45.5581 46.1541 45.6635 46.1147C45.769 46.0752 45.8653 46.0148 45.9467 45.9371C46.0282 45.8594 46.093 45.7659 46.1374 45.6625C46.1817 45.559 46.2046 45.4476 46.2047 45.335C46.2049 45.2225 46.1822 45.1111 46.138 45.0075C46.0939 44.9039 46.0292 44.8104 45.948 44.7325C45.8667 44.6546 45.7705 44.594 45.6651 44.5543C45.5598 44.5147 45.4475 44.4968 45.335 44.5017C45.1206 44.5111 44.9182 44.6028 44.7697 44.7577C44.6213 44.9126 44.5383 45.1188 44.5381 45.3334C44.5379 45.5479 44.6204 45.7543 44.7686 45.9095C44.9167 46.0648 45.119 46.1569 45.3333 46.1667ZM40.3333 51.3183C40.3333 49.555 43.6642 48.6667 45.3333 48.6667C47.0025 48.6667 50.3333 49.555 50.3333 51.3183V54.5H40.3333V51.3183ZM42.0458 51.3517C42.0299 51.3669 42.0146 51.3827 42 51.3992V52.8333H48.6667V51.4C48.6521 51.383 48.6368 51.3666 48.6208 51.3508C48.4842 51.2175 48.2208 51.0408 47.8075 50.865C46.9742 50.5108 45.9458 50.3333 45.3333 50.3333C44.7208 50.3333 43.6925 50.5108 42.8592 50.865C42.4458 51.04 42.1825 51.2183 42.0458 51.3517Z" fill="#009379"/>
<path fill-rule="evenodd" clip-rule="evenodd" d="M36.1663 27.8333C36.1663 27.1703 36.4297 26.5344 36.8986 26.0656C37.3674 25.5967 38.0033 25.3333 38.6663 25.3333H45.333C45.996 25.3333 46.6319 25.5967 47.1008 26.0656C47.5696 26.5344 47.833 27.1703 47.833 27.8333H51.1663C51.8294 27.8333 52.4653 28.0967 52.9341 28.5656C53.4029 29.0344 53.6663 29.6703 53.6663 30.3333V56.1667C53.6663 56.8297 53.4029 57.4656 52.9341 57.9344C52.4653 58.4033 51.8294 58.6667 51.1663 58.6667H32.833C32.17 58.6667 31.5341 58.4033 31.0652 57.9344C30.5964 57.4656 30.333 56.8297 30.333 56.1667V30.3333C30.333 29.6703 30.5964 29.0344 31.0652 28.5656C31.5341 28.0967 32.17 27.8333 32.833 27.8333H36.1663ZM45.333 32C45.996 32 46.6319 31.7366 47.1008 31.2678C47.5696 30.7989 47.833 30.1631 47.833 29.5H51.1663C51.3874 29.5 51.5993 29.5878 51.7556 29.7441C51.9119 29.9004 51.9997 30.1123 51.9997 30.3333V56.1667C51.9997 56.3877 51.9119 56.5997 51.7556 56.7559C51.5993 56.9122 51.3874 57 51.1663 57H32.833C32.612 57 32.4 56.9122 32.2438 56.7559C32.0875 56.5997 31.9997 56.3877 31.9997 56.1667V30.3333C31.9997 30.1123 32.0875 29.9004 32.2438 29.7441C32.4 29.5878 32.612 29.5 32.833 29.5H36.1663C36.1663 30.1631 36.4297 30.7989 36.8986 31.2678C37.3674 31.7366 38.0033 32 38.6663 32H45.333ZM38.6663 27C38.4453 27 38.2334 27.0878 38.0771 27.2441C37.9208 27.4004 37.833 27.6123 37.833 27.8333V29.5C37.833 29.721 37.9208 29.933 38.0771 30.0893C38.2334 30.2455 38.4453 30.3333 38.6663 30.3333H45.333C45.554 30.3333 45.766 30.2455 45.9223 30.0893C46.0785 29.933 46.1663 29.721 46.1663 29.5V27.8333C46.1663 27.6123 46.0785 27.4004 45.9223 27.2441C45.766 27.0878 45.554 27 45.333 27H38.6663Z" fill="#009379"/>
</svg>
