<svg width="36" height="36" viewBox="0 0 36 36" fill="none" xmlns="http://www.w3.org/2000/svg">
<path d="M16.7312 1.42894C17.167 0.25108 18.833 0.251078 19.2688 1.42894L23.1859 12.0148C23.323 12.3851 23.6149 12.677 23.9852 12.8141L34.5711 16.7312C35.7489 17.167 35.7489 18.833 34.5711 19.2688L23.9852 23.1859C23.6149 23.323 23.323 23.6149 23.1859 23.9852L19.2688 34.5711C18.833 35.7489 17.167 35.7489 16.7312 34.5711L12.8141 23.9852C12.677 23.6149 12.3851 23.323 12.0148 23.1859L1.42894 19.2688C0.25108 18.833 0.251078 17.167 1.42894 16.7312L12.0148 12.8141C12.3851 12.677 12.677 12.3851 12.8141 12.0148L16.7312 1.42894Z" fill="#009379"/>
</svg>
