<svg width="749" height="681" viewBox="0 0 749 681" fill="none" xmlns="http://www.w3.org/2000/svg">
<path d="M510.652 532.701C365.982 614.219 207.107 606.481 155.795 515.418C104.483 424.355 152.308 80.8456 353.31 180.002C554.312 279.159 612.91 102.579 662.346 255.81C713.657 346.874 655.323 451.183 510.652 532.701Z" fill="#8BD1B6" fill-opacity="0.25"/>
<path d="M632.058 246.655L632.089 246.751L632.138 246.838C657.605 292.034 655.887 340.507 629.78 387.89C603.649 435.318 553.07 481.659 480.825 522.367C408.628 563.048 332.927 581.433 268.927 578.316C204.911 575.198 152.758 550.59 127.33 505.464C114.632 482.928 108 444.597 108.408 401.195C108.815 357.83 116.249 309.567 131.54 267.255C146.837 224.922 169.95 188.676 201.624 169.162C233.225 149.693 273.529 146.769 323.532 171.436C373.913 196.29 415.416 203.885 450.113 203.668C483.442 203.46 510.447 196.039 532.885 189.874C533.795 189.624 534.698 189.375 535.593 189.13C547.094 185.978 557.327 183.273 566.621 182.161C575.902 181.052 584.168 181.543 591.746 184.724C606.892 191.083 619.709 208.378 632.058 246.655Z" stroke="#008354" stroke-width="2"/>
</svg>
