<svg width="257" height="124" viewBox="0 0 257 124" fill="none" xmlns="http://www.w3.org/2000/svg">
<path d="M4.99395 10C2.23306 10 0 7.76423 0 5C0 2.23578 2.23306 0 4.99395 0C7.75484 0 9.9879 2.23578 9.9879 5C9.97437 7.76423 7.7413 10 4.99395 10Z" fill="#38DF9F" fill-opacity="0.3"/>
<path d="M23.9822 10C21.2213 10 18.9883 7.76423 18.9883 5C18.9883 2.23578 21.2213 0 23.9822 0C26.7431 0 28.9762 2.23578 28.9762 5C28.9626 7.76423 26.7296 10 23.9822 10Z" fill="#38DF9F" fill-opacity="0.3"/>
<path d="M42.9695 10C40.2087 10 37.9756 7.76423 37.9756 5C37.9756 2.23578 40.2087 0 42.9695 0C45.7304 0 47.9635 2.23578 47.9635 5C47.95 7.76423 45.7169 10 42.9695 10Z" fill="#38DF9F" fill-opacity="0.3"/>
<path d="M61.9578 10C59.1969 10 56.9639 7.76423 56.9639 5C56.9639 2.23578 59.1969 0 61.9578 0C64.7187 0 66.9518 2.23578 66.9518 5C66.9382 7.76423 64.7052 10 61.9578 10Z" fill="#38DF9F" fill-opacity="0.3"/>
<path d="M80.9451 10C78.1842 10 75.9512 7.76423 75.9512 5C75.9512 2.23578 78.1842 0 80.9451 0C83.706 0 85.9391 2.23578 85.9391 5C85.9255 7.76423 83.6925 10 80.9451 10Z" fill="#38DF9F" fill-opacity="0.3"/>
<path d="M99.9334 10C97.1725 10 94.9395 7.76423 94.9395 5C94.9395 2.23578 97.1725 0 99.9334 0C102.694 0 104.927 2.23578 104.927 5C104.914 7.76423 102.681 10 99.9334 10Z" fill="#38DF9F" fill-opacity="0.3"/>
<path d="M118.922 10C116.161 10 113.928 7.76423 113.928 5C113.928 2.23578 116.161 0 118.922 0C121.683 0 123.916 2.23578 123.916 5C123.902 7.76423 121.669 10 118.922 10Z" fill="#38DF9F" fill-opacity="0.3"/>
<path d="M137.909 10C135.148 10 132.915 7.76423 132.915 5C132.915 2.23578 135.148 0 137.909 0C140.67 0 142.903 2.23578 142.903 5C142.889 7.76423 140.656 10 137.909 10Z" fill="#38DF9F" fill-opacity="0.3"/>
<path d="M156.897 10C154.136 10 151.903 7.76423 151.903 5C151.903 2.23578 154.136 0 156.897 0C159.658 0 161.891 2.23578 161.891 5C161.878 7.76423 159.645 10 156.897 10Z" fill="#38DF9F" fill-opacity="0.3"/>
<path d="M175.885 10C173.124 10 170.891 7.76423 170.891 5C170.891 2.23578 173.124 0 175.885 0C178.645 0 180.879 2.23578 180.879 5C180.865 7.76423 178.632 10 175.885 10Z" fill="#38DF9F" fill-opacity="0.3"/>
<path d="M194.873 10C192.112 10 189.879 7.76423 189.879 5C189.879 2.23578 192.112 0 194.873 0C197.634 0 199.867 2.23578 199.867 5C199.853 7.76423 197.62 10 194.873 10Z" fill="#38DF9F" fill-opacity="0.3"/>
<path d="M213.861 10C211.1 10 208.867 7.76423 208.867 5C208.867 2.23578 211.1 0 213.861 0C216.622 0 218.855 2.23578 218.855 5C218.842 7.76423 216.608 10 213.861 10Z" fill="#38DF9F" fill-opacity="0.3"/>
<path d="M232.848 10C230.088 10 227.854 7.76423 227.854 5C227.854 2.23578 230.088 0 232.848 0C235.609 0 237.842 2.23578 237.842 5C237.829 7.76423 235.596 10 232.848 10Z" fill="#38DF9F" fill-opacity="0.3"/>
<path d="M251.837 10C249.076 10 246.843 7.76423 246.843 5C246.843 2.23578 249.076 0 251.837 0C254.598 0 256.831 2.23578 256.831 5C256.817 7.76423 254.584 10 251.837 10Z" fill="#38DF9F" fill-opacity="0.3"/>
<path d="M4.99395 29C2.23306 29 0 26.7642 0 24C0 21.2358 2.23306 19 4.99395 19C7.75484 19 9.9879 21.2358 9.9879 24C9.97437 26.7642 7.7413 29 4.99395 29Z" fill="#38DF9F" fill-opacity="0.3"/>
<path d="M23.9822 29C21.2213 29 18.9883 26.7642 18.9883 24C18.9883 21.2358 21.2213 19 23.9822 19C26.7431 19 28.9762 21.2358 28.9762 24C28.9626 26.7642 26.7296 29 23.9822 29Z" fill="#38DF9F" fill-opacity="0.3"/>
<path d="M42.9695 29C40.2087 29 37.9756 26.7642 37.9756 24C37.9756 21.2358 40.2087 19 42.9695 19C45.7304 19 47.9635 21.2358 47.9635 24C47.95 26.7642 45.7169 29 42.9695 29Z" fill="#38DF9F" fill-opacity="0.3"/>
<path d="M61.9578 29C59.1969 29 56.9639 26.7642 56.9639 24C56.9639 21.2358 59.1969 19 61.9578 19C64.7187 19 66.9518 21.2358 66.9518 24C66.9382 26.7642 64.7052 29 61.9578 29Z" fill="#38DF9F" fill-opacity="0.3"/>
<path d="M80.9451 29C78.1842 29 75.9512 26.7642 75.9512 24C75.9512 21.2358 78.1842 19 80.9451 19C83.706 19 85.9391 21.2358 85.9391 24C85.9255 26.7642 83.6925 29 80.9451 29Z" fill="#38DF9F" fill-opacity="0.3"/>
<path d="M99.9334 29C97.1725 29 94.9395 26.7642 94.9395 24C94.9395 21.2358 97.1725 19 99.9334 19C102.694 19 104.927 21.2358 104.927 24C104.914 26.7642 102.681 29 99.9334 29Z" fill="#38DF9F" fill-opacity="0.3"/>
<path d="M118.922 29C116.161 29 113.928 26.7642 113.928 24C113.928 21.2358 116.161 19 118.922 19C121.683 19 123.916 21.2358 123.916 24C123.902 26.7642 121.669 29 118.922 29Z" fill="#38DF9F" fill-opacity="0.3"/>
<path d="M137.909 29C135.148 29 132.915 26.7642 132.915 24C132.915 21.2358 135.148 19 137.909 19C140.67 19 142.903 21.2358 142.903 24C142.889 26.7642 140.656 29 137.909 29Z" fill="#38DF9F" fill-opacity="0.3"/>
<path d="M156.897 29C154.136 29 151.903 26.7642 151.903 24C151.903 21.2358 154.136 19 156.897 19C159.658 19 161.891 21.2358 161.891 24C161.878 26.7642 159.645 29 156.897 29Z" fill="#38DF9F" fill-opacity="0.3"/>
<path d="M175.885 29C173.124 29 170.891 26.7642 170.891 24C170.891 21.2358 173.124 19 175.885 19C178.645 19 180.879 21.2358 180.879 24C180.865 26.7642 178.632 29 175.885 29Z" fill="#38DF9F" fill-opacity="0.3"/>
<path d="M194.873 29C192.112 29 189.879 26.7642 189.879 24C189.879 21.2358 192.112 19 194.873 19C197.634 19 199.867 21.2358 199.867 24C199.853 26.7642 197.62 29 194.873 29Z" fill="#38DF9F" fill-opacity="0.3"/>
<path d="M213.861 29C211.1 29 208.867 26.7642 208.867 24C208.867 21.2358 211.1 19 213.861 19C216.622 19 218.855 21.2358 218.855 24C218.842 26.7642 216.608 29 213.861 29Z" fill="#38DF9F" fill-opacity="0.3"/>
<path d="M232.848 29C230.088 29 227.854 26.7642 227.854 24C227.854 21.2358 230.088 19 232.848 19C235.609 19 237.842 21.2358 237.842 24C237.829 26.7642 235.596 29 232.848 29Z" fill="#38DF9F" fill-opacity="0.3"/>
<path d="M251.837 29C249.076 29 246.843 26.7642 246.843 24C246.843 21.2358 249.076 19 251.837 19C254.598 19 256.831 21.2358 256.831 24C256.817 26.7642 254.584 29 251.837 29Z" fill="#38DF9F" fill-opacity="0.3"/>
<path d="M4.99395 48C2.23306 48 0 45.7642 0 43C0 40.2358 2.23306 38 4.99395 38C7.75484 38 9.9879 40.2358 9.9879 43C9.97437 45.7642 7.7413 48 4.99395 48Z" fill="#38DF9F" fill-opacity="0.3"/>
<path d="M23.9822 48C21.2213 48 18.9883 45.7642 18.9883 43C18.9883 40.2358 21.2213 38 23.9822 38C26.7431 38 28.9762 40.2358 28.9762 43C28.9626 45.7642 26.7296 48 23.9822 48Z" fill="#38DF9F" fill-opacity="0.3"/>
<path d="M42.9695 48C40.2087 48 37.9756 45.7642 37.9756 43C37.9756 40.2358 40.2087 38 42.9695 38C45.7304 38 47.9635 40.2358 47.9635 43C47.95 45.7642 45.7169 48 42.9695 48Z" fill="#38DF9F" fill-opacity="0.3"/>
<path d="M61.9578 48C59.1969 48 56.9639 45.7642 56.9639 43C56.9639 40.2358 59.1969 38 61.9578 38C64.7187 38 66.9518 40.2358 66.9518 43C66.9382 45.7642 64.7052 48 61.9578 48Z" fill="#38DF9F" fill-opacity="0.3"/>
<path d="M80.9451 48C78.1842 48 75.9512 45.7642 75.9512 43C75.9512 40.2358 78.1842 38 80.9451 38C83.706 38 85.9391 40.2358 85.9391 43C85.9255 45.7642 83.6925 48 80.9451 48Z" fill="#38DF9F" fill-opacity="0.3"/>
<path d="M99.9334 48C97.1725 48 94.9395 45.7642 94.9395 43C94.9395 40.2358 97.1725 38 99.9334 38C102.694 38 104.927 40.2358 104.927 43C104.914 45.7642 102.681 48 99.9334 48Z" fill="#38DF9F" fill-opacity="0.3"/>
<path d="M118.922 48C116.161 48 113.928 45.7642 113.928 43C113.928 40.2358 116.161 38 118.922 38C121.683 38 123.916 40.2358 123.916 43C123.902 45.7642 121.669 48 118.922 48Z" fill="#38DF9F" fill-opacity="0.3"/>
<path d="M137.909 48C135.148 48 132.915 45.7642 132.915 43C132.915 40.2358 135.148 38 137.909 38C140.67 38 142.903 40.2358 142.903 43C142.889 45.7642 140.656 48 137.909 48Z" fill="#38DF9F" fill-opacity="0.3"/>
<path d="M156.897 48C154.136 48 151.903 45.7642 151.903 43C151.903 40.2358 154.136 38 156.897 38C159.658 38 161.891 40.2358 161.891 43C161.878 45.7642 159.645 48 156.897 48Z" fill="#38DF9F" fill-opacity="0.3"/>
<path d="M175.885 48C173.124 48 170.891 45.7642 170.891 43C170.891 40.2358 173.124 38 175.885 38C178.645 38 180.879 40.2358 180.879 43C180.865 45.7642 178.632 48 175.885 48Z" fill="#38DF9F" fill-opacity="0.3"/>
<path d="M194.873 48C192.112 48 189.879 45.7642 189.879 43C189.879 40.2358 192.112 38 194.873 38C197.634 38 199.867 40.2358 199.867 43C199.853 45.7642 197.62 48 194.873 48Z" fill="#38DF9F" fill-opacity="0.3"/>
<path d="M213.861 48C211.1 48 208.867 45.7642 208.867 43C208.867 40.2358 211.1 38 213.861 38C216.622 38 218.855 40.2358 218.855 43C218.842 45.7642 216.608 48 213.861 48Z" fill="#38DF9F" fill-opacity="0.3"/>
<path d="M232.848 48C230.088 48 227.854 45.7642 227.854 43C227.854 40.2358 230.088 38 232.848 38C235.609 38 237.842 40.2358 237.842 43C237.829 45.7642 235.596 48 232.848 48Z" fill="#38DF9F" fill-opacity="0.3"/>
<path d="M251.837 48C249.076 48 246.843 45.7642 246.843 43C246.843 40.2358 249.076 38 251.837 38C254.598 38 256.831 40.2358 256.831 43C256.817 45.7642 254.584 48 251.837 48Z" fill="#38DF9F" fill-opacity="0.3"/>
<path d="M4.99395 67C2.23306 67 0 64.7642 0 62C0 59.2358 2.23306 57 4.99395 57C7.75484 57 9.9879 59.2358 9.9879 62C9.97437 64.7642 7.7413 67 4.99395 67Z" fill="#38DF9F" fill-opacity="0.3"/>
<path d="M23.9822 67C21.2213 67 18.9883 64.7642 18.9883 62C18.9883 59.2358 21.2213 57 23.9822 57C26.7431 57 28.9762 59.2358 28.9762 62C28.9626 64.7642 26.7296 67 23.9822 67Z" fill="#38DF9F" fill-opacity="0.3"/>
<path d="M42.9695 67C40.2087 67 37.9756 64.7642 37.9756 62C37.9756 59.2358 40.2087 57 42.9695 57C45.7304 57 47.9635 59.2358 47.9635 62C47.95 64.7642 45.7169 67 42.9695 67Z" fill="#38DF9F" fill-opacity="0.3"/>
<path d="M61.9578 67C59.1969 67 56.9639 64.7642 56.9639 62C56.9639 59.2358 59.1969 57 61.9578 57C64.7187 57 66.9518 59.2358 66.9518 62C66.9382 64.7642 64.7052 67 61.9578 67Z" fill="#38DF9F" fill-opacity="0.3"/>
<path d="M80.9451 67C78.1842 67 75.9512 64.7642 75.9512 62C75.9512 59.2358 78.1842 57 80.9451 57C83.706 57 85.9391 59.2358 85.9391 62C85.9255 64.7642 83.6925 67 80.9451 67Z" fill="#38DF9F" fill-opacity="0.3"/>
<path d="M99.9334 67C97.1725 67 94.9395 64.7642 94.9395 62C94.9395 59.2358 97.1725 57 99.9334 57C102.694 57 104.927 59.2358 104.927 62C104.914 64.7642 102.681 67 99.9334 67Z" fill="#38DF9F" fill-opacity="0.3"/>
<path d="M118.922 67C116.161 67 113.928 64.7642 113.928 62C113.928 59.2358 116.161 57 118.922 57C121.683 57 123.916 59.2358 123.916 62C123.902 64.7642 121.669 67 118.922 67Z" fill="#38DF9F" fill-opacity="0.3"/>
<path d="M137.909 67C135.148 67 132.915 64.7642 132.915 62C132.915 59.2358 135.148 57 137.909 57C140.67 57 142.903 59.2358 142.903 62C142.889 64.7642 140.656 67 137.909 67Z" fill="#38DF9F" fill-opacity="0.3"/>
<path d="M156.897 67C154.136 67 151.903 64.7642 151.903 62C151.903 59.2358 154.136 57 156.897 57C159.658 57 161.891 59.2358 161.891 62C161.878 64.7642 159.645 67 156.897 67Z" fill="#38DF9F" fill-opacity="0.3"/>
<path d="M175.885 67C173.124 67 170.891 64.7642 170.891 62C170.891 59.2358 173.124 57 175.885 57C178.645 57 180.879 59.2358 180.879 62C180.865 64.7642 178.632 67 175.885 67Z" fill="#38DF9F" fill-opacity="0.3"/>
<path d="M194.873 67C192.112 67 189.879 64.7642 189.879 62C189.879 59.2358 192.112 57 194.873 57C197.634 57 199.867 59.2358 199.867 62C199.853 64.7642 197.62 67 194.873 67Z" fill="#38DF9F" fill-opacity="0.3"/>
<path d="M213.861 67C211.1 67 208.867 64.7642 208.867 62C208.867 59.2358 211.1 57 213.861 57C216.622 57 218.855 59.2358 218.855 62C218.842 64.7642 216.608 67 213.861 67Z" fill="#38DF9F" fill-opacity="0.3"/>
<path d="M232.848 67C230.088 67 227.854 64.7642 227.854 62C227.854 59.2358 230.088 57 232.848 57C235.609 57 237.842 59.2358 237.842 62C237.829 64.7642 235.596 67 232.848 67Z" fill="#38DF9F" fill-opacity="0.3"/>
<path d="M251.837 67C249.076 67 246.843 64.7642 246.843 62C246.843 59.2358 249.076 57 251.837 57C254.598 57 256.831 59.2358 256.831 62C256.817 64.7642 254.584 67 251.837 67Z" fill="#38DF9F" fill-opacity="0.3"/>
<path d="M4.99395 86C2.23306 86 0 83.7642 0 81C0 78.2358 2.23306 76 4.99395 76C7.75484 76 9.9879 78.2358 9.9879 81C9.97437 83.7642 7.7413 86 4.99395 86Z" fill="#38DF9F" fill-opacity="0.3"/>
<path d="M23.9822 86C21.2213 86 18.9883 83.7642 18.9883 81C18.9883 78.2358 21.2213 76 23.9822 76C26.7431 76 28.9762 78.2358 28.9762 81C28.9626 83.7642 26.7296 86 23.9822 86Z" fill="#38DF9F" fill-opacity="0.3"/>
<path d="M42.9695 86C40.2087 86 37.9756 83.7642 37.9756 81C37.9756 78.2358 40.2087 76 42.9695 76C45.7304 76 47.9635 78.2358 47.9635 81C47.95 83.7642 45.7169 86 42.9695 86Z" fill="#38DF9F" fill-opacity="0.3"/>
<path d="M61.9578 86C59.1969 86 56.9639 83.7642 56.9639 81C56.9639 78.2358 59.1969 76 61.9578 76C64.7187 76 66.9518 78.2358 66.9518 81C66.9382 83.7642 64.7052 86 61.9578 86Z" fill="#38DF9F" fill-opacity="0.3"/>
<path d="M80.9451 86C78.1842 86 75.9512 83.7642 75.9512 81C75.9512 78.2358 78.1842 76 80.9451 76C83.706 76 85.9391 78.2358 85.9391 81C85.9255 83.7642 83.6925 86 80.9451 86Z" fill="#38DF9F" fill-opacity="0.3"/>
<path d="M99.9334 86C97.1725 86 94.9395 83.7642 94.9395 81C94.9395 78.2358 97.1725 76 99.9334 76C102.694 76 104.927 78.2358 104.927 81C104.914 83.7642 102.681 86 99.9334 86Z" fill="#38DF9F" fill-opacity="0.3"/>
<path d="M118.922 86C116.161 86 113.928 83.7642 113.928 81C113.928 78.2358 116.161 76 118.922 76C121.683 76 123.916 78.2358 123.916 81C123.902 83.7642 121.669 86 118.922 86Z" fill="#38DF9F" fill-opacity="0.3"/>
<path d="M137.909 86C135.148 86 132.915 83.7642 132.915 81C132.915 78.2358 135.148 76 137.909 76C140.67 76 142.903 78.2358 142.903 81C142.889 83.7642 140.656 86 137.909 86Z" fill="#38DF9F" fill-opacity="0.3"/>
<path d="M156.897 86C154.136 86 151.903 83.7642 151.903 81C151.903 78.2358 154.136 76 156.897 76C159.658 76 161.891 78.2358 161.891 81C161.878 83.7642 159.645 86 156.897 86Z" fill="#38DF9F" fill-opacity="0.3"/>
<path d="M175.885 86C173.124 86 170.891 83.7642 170.891 81C170.891 78.2358 173.124 76 175.885 76C178.645 76 180.879 78.2358 180.879 81C180.865 83.7642 178.632 86 175.885 86Z" fill="#38DF9F" fill-opacity="0.3"/>
<path d="M194.873 86C192.112 86 189.879 83.7642 189.879 81C189.879 78.2358 192.112 76 194.873 76C197.634 76 199.867 78.2358 199.867 81C199.853 83.7642 197.62 86 194.873 86Z" fill="#38DF9F" fill-opacity="0.3"/>
<path d="M213.861 86C211.1 86 208.867 83.7642 208.867 81C208.867 78.2358 211.1 76 213.861 76C216.622 76 218.855 78.2358 218.855 81C218.842 83.7642 216.608 86 213.861 86Z" fill="#38DF9F" fill-opacity="0.3"/>
<path d="M232.848 86C230.088 86 227.854 83.7642 227.854 81C227.854 78.2358 230.088 76 232.848 76C235.609 76 237.842 78.2358 237.842 81C237.829 83.7642 235.596 86 232.848 86Z" fill="#38DF9F" fill-opacity="0.3"/>
<path d="M251.837 86C249.076 86 246.843 83.7642 246.843 81C246.843 78.2358 249.076 76 251.837 76C254.598 76 256.831 78.2358 256.831 81C256.817 83.7642 254.584 86 251.837 86Z" fill="#38DF9F" fill-opacity="0.3"/>
<path d="M4.99395 105C2.23306 105 0 102.764 0 100C0 97.2358 2.23306 95 4.99395 95C7.75484 95 9.9879 97.2358 9.9879 100C9.97437 102.764 7.7413 105 4.99395 105Z" fill="#38DF9F" fill-opacity="0.3"/>
<path d="M23.9822 105C21.2213 105 18.9883 102.764 18.9883 100C18.9883 97.2358 21.2213 95 23.9822 95C26.7431 95 28.9762 97.2358 28.9762 100C28.9626 102.764 26.7296 105 23.9822 105Z" fill="#38DF9F" fill-opacity="0.3"/>
<path d="M42.9695 105C40.2087 105 37.9756 102.764 37.9756 100C37.9756 97.2358 40.2087 95 42.9695 95C45.7304 95 47.9635 97.2358 47.9635 100C47.95 102.764 45.7169 105 42.9695 105Z" fill="#38DF9F" fill-opacity="0.3"/>
<path d="M61.9578 105C59.1969 105 56.9639 102.764 56.9639 100C56.9639 97.2358 59.1969 95 61.9578 95C64.7187 95 66.9518 97.2358 66.9518 100C66.9382 102.764 64.7052 105 61.9578 105Z" fill="#38DF9F" fill-opacity="0.3"/>
<path d="M80.9451 105C78.1842 105 75.9512 102.764 75.9512 100C75.9512 97.2358 78.1842 95 80.9451 95C83.706 95 85.9391 97.2358 85.9391 100C85.9255 102.764 83.6925 105 80.9451 105Z" fill="#38DF9F" fill-opacity="0.3"/>
<path d="M99.9334 105C97.1725 105 94.9395 102.764 94.9395 100C94.9395 97.2358 97.1725 95 99.9334 95C102.694 95 104.927 97.2358 104.927 100C104.914 102.764 102.681 105 99.9334 105Z" fill="#38DF9F" fill-opacity="0.3"/>
<path d="M118.922 105C116.161 105 113.928 102.764 113.928 100C113.928 97.2358 116.161 95 118.922 95C121.683 95 123.916 97.2358 123.916 100C123.902 102.764 121.669 105 118.922 105Z" fill="#38DF9F" fill-opacity="0.3"/>
<path d="M137.909 105C135.148 105 132.915 102.764 132.915 100C132.915 97.2358 135.148 95 137.909 95C140.67 95 142.903 97.2358 142.903 100C142.889 102.764 140.656 105 137.909 105Z" fill="#38DF9F" fill-opacity="0.3"/>
<path d="M156.897 105C154.136 105 151.903 102.764 151.903 100C151.903 97.2358 154.136 95 156.897 95C159.658 95 161.891 97.2358 161.891 100C161.878 102.764 159.645 105 156.897 105Z" fill="#38DF9F" fill-opacity="0.3"/>
<path d="M175.885 105C173.124 105 170.891 102.764 170.891 100C170.891 97.2358 173.124 95 175.885 95C178.645 95 180.879 97.2358 180.879 100C180.865 102.764 178.632 105 175.885 105Z" fill="#38DF9F" fill-opacity="0.3"/>
<path d="M194.873 105C192.112 105 189.879 102.764 189.879 100C189.879 97.2358 192.112 95 194.873 95C197.634 95 199.867 97.2358 199.867 100C199.853 102.764 197.62 105 194.873 105Z" fill="#38DF9F" fill-opacity="0.3"/>
<path d="M213.861 105C211.1 105 208.867 102.764 208.867 100C208.867 97.2358 211.1 95 213.861 95C216.622 95 218.855 97.2358 218.855 100C218.842 102.764 216.608 105 213.861 105Z" fill="#38DF9F" fill-opacity="0.3"/>
<path d="M232.848 105C230.088 105 227.854 102.764 227.854 100C227.854 97.2358 230.088 95 232.848 95C235.609 95 237.842 97.2358 237.842 100C237.829 102.764 235.596 105 232.848 105Z" fill="#38DF9F" fill-opacity="0.3"/>
<path d="M251.837 105C249.076 105 246.843 102.764 246.843 100C246.843 97.2358 249.076 95 251.837 95C254.598 95 256.831 97.2358 256.831 100C256.817 102.764 254.584 105 251.837 105Z" fill="#38DF9F" fill-opacity="0.3"/>
<path d="M4.99395 124C2.23306 124 0 121.764 0 119C0 116.236 2.23306 114 4.99395 114C7.75484 114 9.9879 116.236 9.9879 119C9.97437 121.764 7.7413 124 4.99395 124Z" fill="#38DF9F" fill-opacity="0.3"/>
<path d="M23.9822 124C21.2213 124 18.9883 121.764 18.9883 119C18.9883 116.236 21.2213 114 23.9822 114C26.7431 114 28.9762 116.236 28.9762 119C28.9626 121.764 26.7296 124 23.9822 124Z" fill="#38DF9F" fill-opacity="0.3"/>
<path d="M42.9695 124C40.2087 124 37.9756 121.764 37.9756 119C37.9756 116.236 40.2087 114 42.9695 114C45.7304 114 47.9635 116.236 47.9635 119C47.95 121.764 45.7169 124 42.9695 124Z" fill="#38DF9F" fill-opacity="0.3"/>
<path d="M61.9578 124C59.1969 124 56.9639 121.764 56.9639 119C56.9639 116.236 59.1969 114 61.9578 114C64.7187 114 66.9518 116.236 66.9518 119C66.9382 121.764 64.7052 124 61.9578 124Z" fill="#38DF9F" fill-opacity="0.3"/>
<path d="M80.9451 124C78.1842 124 75.9512 121.764 75.9512 119C75.9512 116.236 78.1842 114 80.9451 114C83.706 114 85.9391 116.236 85.9391 119C85.9255 121.764 83.6925 124 80.9451 124Z" fill="#38DF9F" fill-opacity="0.3"/>
<path d="M99.9334 124C97.1725 124 94.9395 121.764 94.9395 119C94.9395 116.236 97.1725 114 99.9334 114C102.694 114 104.927 116.236 104.927 119C104.914 121.764 102.681 124 99.9334 124Z" fill="#38DF9F" fill-opacity="0.3"/>
<path d="M118.922 124C116.161 124 113.928 121.764 113.928 119C113.928 116.236 116.161 114 118.922 114C121.683 114 123.916 116.236 123.916 119C123.902 121.764 121.669 124 118.922 124Z" fill="#38DF9F" fill-opacity="0.3"/>
<path d="M137.909 124C135.148 124 132.915 121.764 132.915 119C132.915 116.236 135.148 114 137.909 114C140.67 114 142.903 116.236 142.903 119C142.889 121.764 140.656 124 137.909 124Z" fill="#38DF9F" fill-opacity="0.3"/>
<path d="M156.897 124C154.136 124 151.903 121.764 151.903 119C151.903 116.236 154.136 114 156.897 114C159.658 114 161.891 116.236 161.891 119C161.878 121.764 159.645 124 156.897 124Z" fill="#38DF9F" fill-opacity="0.3"/>
<path d="M175.885 124C173.124 124 170.891 121.764 170.891 119C170.891 116.236 173.124 114 175.885 114C178.645 114 180.879 116.236 180.879 119C180.865 121.764 178.632 124 175.885 124Z" fill="#38DF9F" fill-opacity="0.3"/>
<path d="M194.873 124C192.112 124 189.879 121.764 189.879 119C189.879 116.236 192.112 114 194.873 114C197.634 114 199.867 116.236 199.867 119C199.853 121.764 197.62 124 194.873 124Z" fill="#38DF9F" fill-opacity="0.3"/>
<path d="M213.861 124C211.1 124 208.867 121.764 208.867 119C208.867 116.236 211.1 114 213.861 114C216.622 114 218.855 116.236 218.855 119C218.842 121.764 216.608 124 213.861 124Z" fill="#38DF9F" fill-opacity="0.3"/>
<path d="M232.848 124C230.088 124 227.854 121.764 227.854 119C227.854 116.236 230.088 114 232.848 114C235.609 114 237.842 116.236 237.842 119C237.829 121.764 235.596 124 232.848 124Z" fill="#38DF9F" fill-opacity="0.3"/>
<path d="M251.837 124C249.076 124 246.843 121.764 246.843 119C246.843 116.236 249.076 114 251.837 114C254.598 114 256.831 116.236 256.831 119C256.817 121.764 254.584 124 251.837 124Z" fill="#38DF9F" fill-opacity="0.3"/>
</svg>
