<svg width="72" height="72" viewBox="0 0 72 72" fill="none" xmlns="http://www.w3.org/2000/svg">
<g filter="url(#filter0_d_372_721)">
<rect x="4" width="64" height="64" rx="11" fill="#F7FAFE" shape-rendering="crispEdges"/>
<path d="M32.2625 39.0751C30.8375 43.3126 25.1875 43.3125 25.1875 43.3125C25.1875 43.3125 25.1875 37.6625 29.425 36.2375" stroke="#4285F4" stroke-width="2" stroke-linecap="round" stroke-linejoin="round"/>
<path d="M44.9879 29.1751L36.5004 37.6626L30.8379 32.0001L39.3254 23.5126C42.5379 20.3001 45.7504 20.3376 47.1254 20.5376C47.3376 20.5659 47.5345 20.6632 47.6859 20.8146C47.8372 20.966 47.9346 21.1629 47.9629 21.3751C48.1629 22.7501 48.2004 25.9626 44.9879 29.1751Z" stroke="#4285F4" stroke-width="2" stroke-linecap="round" stroke-linejoin="round"/>
<path d="M43.575 30.5874V38.6624C43.5712 38.9262 43.4634 39.1778 43.275 39.3624L39.2375 43.4124C39.1094 43.5403 38.949 43.6311 38.7733 43.675C38.5977 43.7189 38.4134 43.7143 38.2402 43.6617C38.067 43.6091 37.9113 43.5105 37.7897 43.3763C37.6682 43.2421 37.5853 43.0775 37.55 42.8999L36.5 37.6624" stroke="#4285F4" stroke-width="2" stroke-linecap="round" stroke-linejoin="round"/>
<path d="M37.9124 24.925H29.8374C29.5736 24.9288 29.322 25.0366 29.1374 25.225L25.0874 29.2625C24.9595 29.3906 24.8687 29.5511 24.8248 29.7267C24.7809 29.9023 24.7855 30.0866 24.8381 30.2598C24.8907 30.4331 24.9893 30.5888 25.1235 30.7103C25.2577 30.8319 25.4223 30.9147 25.5999 30.95L30.8374 32" stroke="#4285F4" stroke-width="2" stroke-linecap="round" stroke-linejoin="round"/>
</g>
<defs>
<filter id="filter0_d_372_721" x="0" y="0" width="72" height="72" filterUnits="userSpaceOnUse" color-interpolation-filters="sRGB">
<feFlood flood-opacity="0" result="BackgroundImageFix"/>
<feColorMatrix in="SourceAlpha" type="matrix" values="0 0 0 0 0 0 0 0 0 0 0 0 0 0 0 0 0 0 127 0" result="hardAlpha"/>
<feOffset dy="4"/>
<feGaussianBlur stdDeviation="2"/>
<feComposite in2="hardAlpha" operator="out"/>
<feColorMatrix type="matrix" values="0 0 0 0 0.258824 0 0 0 0 0.521569 0 0 0 0 0.956863 0 0 0 0.3 0"/>
<feBlend mode="normal" in2="BackgroundImageFix" result="effect1_dropShadow_372_721"/>
<feBlend mode="normal" in="SourceGraphic" in2="effect1_dropShadow_372_721" result="shape"/>
</filter>
</defs>
</svg>
