<svg width="20" height="20" viewBox="0 0 20 20" fill="none" xmlns="http://www.w3.org/2000/svg">
<path d="M8.73118 3.42894C9.16703 2.25108 10.833 2.25108 11.2688 3.42894L12.485 6.71566C12.622 7.08598 12.914 7.37795 13.2843 7.51498L16.5711 8.73118C17.7489 9.16703 17.7489 10.833 16.5711 11.2688L13.2843 12.485C12.914 12.622 12.622 12.914 12.485 13.2843L11.2688 16.5711C10.833 17.7489 9.16703 17.7489 8.73118 16.5711L7.51498 13.2843C7.37795 12.914 7.08598 12.622 6.71566 12.485L3.42894 11.2688C2.25108 10.833 2.25108 9.16703 3.42894 8.73118L6.71566 7.51498C7.08598 7.37795 7.37795 7.08598 7.51498 6.71566L8.73118 3.42894Z" fill="#1FBE81" fill-opacity="0.69"/>
</svg>
