<svg width="69" height="24" viewBox="0 0 69 24" fill="none" xmlns="http://www.w3.org/2000/svg">
<path d="M44.0079 23.1959C42.5178 23.1959 41.3057 21.9647 41.3057 20.4513V2.74463C41.3057 1.23118 42.5178 0 44.0079 0C45.4979 0 46.71 1.23118 46.71 2.74463V20.4513C46.71 21.9647 45.4979 23.1959 44.0079 23.1959Z" fill="#333333"/>
<path d="M68.3269 8.78961V20.4153C68.3269 21.2238 67.9915 21.9675 67.4507 22.5011C66.9104 23.0347 66.1654 23.3662 65.3381 23.3662C64.2492 23.3662 63.2992 22.7922 62.7753 21.9352C62.6768 21.7736 62.5952 21.5956 62.5293 21.4178C61.9565 22.1455 61.2356 22.6952 60.36 23.0833C59.418 23.4955 58.2962 23.7058 57.0024 23.7058C55.7087 23.7058 54.5459 23.4147 53.5387 22.8326C52.5233 22.2505 51.7373 21.3855 51.1641 20.2536C50.5909 19.1218 50.3125 17.7312 50.3125 16.0981V8.80577C50.3125 7.9892 50.6482 7.25348 51.1887 6.72797C51.7291 6.19439 52.4742 5.86294 53.3012 5.86294C54.9471 5.86294 56.29 7.18071 56.29 8.80577V15.896C56.29 18.095 57.289 19.1945 59.2952 19.1945C60.2287 19.1945 60.9739 18.9116 61.5305 18.3375C62.0876 17.7636 62.3656 16.9551 62.3656 15.896V8.80577C62.3656 7.18071 63.7005 5.86294 65.3544 5.86294C66.992 5.84678 68.3269 7.16456 68.3269 8.78961Z" fill="#333333"/>
<path d="M29.2013 23.7057C27.3037 23.7057 25.6994 23.4044 24.3963 22.8176C23.0933 22.2228 22.0997 21.3663 21.4075 20.2561C20.7152 19.1459 20.3243 17.8136 20.2348 16.2752C20.2103 15.8311 20.2021 15.3314 20.2021 14.7684C20.2021 14.2054 20.2103 13.7137 20.2348 13.3013C20.3243 11.7391 20.7315 10.4068 21.4563 9.3045C22.1812 8.20218 23.191 7.35362 24.4941 6.75891C25.7971 6.16413 27.3607 5.86279 29.1932 5.86279C31.05 5.86279 32.6218 6.16413 33.9248 6.75891C35.2279 7.35362 36.2377 8.20218 36.9625 9.3045C37.6873 10.4068 38.0945 11.7391 38.1841 13.3013C38.2086 13.7216 38.2167 14.2133 38.2167 14.7684C38.2167 15.3314 38.2086 15.8311 38.1841 16.2752C38.0945 17.8136 37.7037 19.1459 37.0114 20.2561C36.3192 21.3663 35.3256 22.2228 34.0225 22.8176C32.7358 23.4044 31.1233 23.7057 29.2013 23.7057ZM29.2013 19.6692C30.2193 19.6692 30.9604 19.3759 31.4246 18.7731C31.8888 18.1784 32.1576 17.2902 32.2227 16.1007C32.2471 15.7676 32.2553 15.3314 32.2553 14.7763C32.2553 14.2292 32.2471 13.7851 32.2227 13.452C32.1576 12.2862 31.8888 11.3981 31.4246 10.7953C30.9604 10.1927 30.2193 9.88339 29.2013 9.88339C28.2077 9.88339 27.4748 10.1847 26.9943 10.7953C26.5219 11.3981 26.2613 12.2862 26.2124 13.452C26.188 13.7851 26.1799 14.2212 26.1799 14.7763C26.1799 15.3235 26.188 15.7676 26.2124 16.1007C26.2613 17.2902 26.5137 18.1784 26.9943 18.7731C27.4748 19.3759 28.2077 19.6692 29.2013 19.6692Z" fill="#333333"/>
<path d="M18.2533 10.551C19.1138 8.82829 18.4014 6.7408 16.6621 5.8885C14.9228 5.0362 12.8153 5.74181 11.9548 7.46457L6.13017 19.1257C5.3815 20.6246 6.00132 22.4408 7.51464 23.1823C9.47991 24.1454 11.8614 23.348 12.8336 21.4015L18.2533 10.551Z" fill="#38DF9F"/>
<path d="M0.315361 10.3714C-0.48716 8.6212 0.29479 6.55794 2.06189 5.76303C3.82901 4.96817 5.9121 5.74267 6.7146 7.49296L11.9266 18.8602C12.7292 20.6105 11.9473 22.6738 10.1801 23.4686C8.41302 24.2636 6.32992 23.4891 5.52743 21.7388L0.315361 10.3714Z" fill="#333333"/>
<path d="M10.1946 10.9921C10.549 10.3151 11.3904 10.0508 12.074 10.4019C12.7575 10.7529 13.0244 11.5863 12.67 12.2634L10.3294 16.7346C9.97495 17.4116 9.13351 17.6758 8.44995 17.3248C7.76646 16.9738 7.49961 16.1404 7.85402 15.4633L10.1946 10.9921Z" fill="#38DF9F"/>
</svg>
