<svg width="72" height="72" viewBox="0 0 72 72" fill="none" xmlns="http://www.w3.org/2000/svg">
<g filter="url(#filter0_d_92_2344)">
<rect x="4" width="64" height="64" rx="11" fill="#E5F4F2" fill-opacity="0.7" shape-rendering="crispEdges"/>
<path d="M36.0002 20C43.1895 20 49.1708 25.1733 50.4255 32C49.1722 38.8267 43.1895 44 36.0002 44C28.8108 44 22.8295 38.8267 21.5762 32C22.8295 25.1733 28.8108 20 36.0002 20ZM36.0002 41.3333C38.7197 41.333 41.3586 40.4095 43.4848 38.714C45.611 37.0184 47.0987 34.6513 47.7042 32C47.097 29.3504 45.6088 26.9853 43.4828 25.2914C41.3569 23.5975 38.7191 22.6751 36.0008 22.6751C33.2826 22.6751 30.6448 23.5975 28.5188 25.2914C26.3929 26.9853 24.9047 29.3504 24.2975 32C24.903 34.651 26.3904 37.018 28.5164 38.7136C30.6423 40.4091 33.2809 41.3327 36.0002 41.3333ZM36.0002 38C34.4089 38 32.8828 37.3679 31.7575 36.2426C30.6323 35.1174 30.0002 33.5913 30.0002 32C30.0002 30.4087 30.6323 28.8826 31.7575 27.7574C32.8828 26.6321 34.4089 26 36.0002 26C37.5915 26 39.1176 26.6321 40.2428 27.7574C41.368 28.8826 42.0002 30.4087 42.0002 32C42.0002 33.5913 41.368 35.1174 40.2428 36.2426C39.1176 37.3679 37.5915 38 36.0002 38ZM36.0002 35.3333C36.8842 35.3333 37.7321 34.9821 38.3572 34.357C38.9823 33.7319 39.3335 32.8841 39.3335 32C39.3335 31.1159 38.9823 30.2681 38.3572 29.643C37.7321 29.0179 36.8842 28.6667 36.0002 28.6667C35.1161 28.6667 34.2683 29.0179 33.6431 29.643C33.018 30.2681 32.6668 31.1159 32.6668 32C32.6668 32.8841 33.018 33.7319 33.6431 34.357C34.2683 34.9821 35.1161 35.3333 36.0002 35.3333Z" fill="#009379"/>
</g>
<defs>
<filter id="filter0_d_92_2344" x="0" y="0" width="72" height="72" filterUnits="userSpaceOnUse" color-interpolation-filters="sRGB">
<feFlood flood-opacity="0" result="BackgroundImageFix"/>
<feColorMatrix in="SourceAlpha" type="matrix" values="0 0 0 0 0 0 0 0 0 0 0 0 0 0 0 0 0 0 127 0" result="hardAlpha"/>
<feOffset dy="4"/>
<feGaussianBlur stdDeviation="2"/>
<feComposite in2="hardAlpha" operator="out"/>
<feColorMatrix type="matrix" values="0 0 0 0 0.219608 0 0 0 0 0.87451 0 0 0 0 0.623529 0 0 0 0.3 0"/>
<feBlend mode="normal" in2="BackgroundImageFix" result="effect1_dropShadow_92_2344"/>
<feBlend mode="normal" in="SourceGraphic" in2="effect1_dropShadow_92_2344" result="shape"/>
</filter>
</defs>
</svg>
