<svg width="50" height="50" viewBox="0 0 50 50" fill="none" xmlns="http://www.w3.org/2000/svg">
<path d="M38.7312 33.4289C39.167 32.2511 40.833 32.2511 41.2688 33.4289L42.485 36.7157C42.622 37.086 42.914 37.378 43.2843 37.515L46.5711 38.7312C47.7489 39.167 47.7489 40.833 46.5711 41.2688L43.2843 42.485C42.914 42.622 42.622 42.914 42.485 43.2843L41.2688 46.5711C40.833 47.7489 39.167 47.7489 38.7312 46.5711L37.515 43.2843C37.378 42.914 37.086 42.622 36.7157 42.485L33.4289 41.2688C32.2511 40.833 32.2511 39.167 33.4289 38.7312L36.7157 37.515C37.086 37.378 37.378 37.086 37.515 36.7157L38.7312 33.4289Z" fill="#1FBE81" fill-opacity="0.69"/>
<path d="M18.7312 3.42894C19.167 2.25108 20.833 2.25108 21.2688 3.42894L25.1859 14.0148C25.323 14.3851 25.6149 14.677 25.9852 14.8141L36.5711 18.7312C37.7489 19.167 37.7489 20.833 36.5711 21.2688L25.9852 25.1859C25.6149 25.323 25.323 25.6149 25.1859 25.9852L21.2688 36.5711C20.833 37.7489 19.167 37.7489 18.7312 36.5711L14.8141 25.9852C14.677 25.6149 14.3851 25.323 14.0148 25.1859L3.42894 21.2688C2.25108 20.833 2.25108 19.167 3.42894 18.7312L14.0148 14.8141C14.3851 14.677 14.677 14.3851 14.8141 14.0148L18.7312 3.42894Z" fill="#009379"/>
</svg>
